<?xml version="1.0" encoding="UTF-8"?>
<svg version="1.1" xmlns="http://www.w3.org/2000/svg" width="563" height="117">
<path d="M0 0 C1.1328125 1.6953125 1.1328125 1.6953125 0.9453125 5.1953125 C0.1328125 8.6953125 0.1328125 8.6953125 -1.8671875 11.6953125 C-1.08214844 12.05882812 -0.29710938 12.42234375 0.51171875 12.796875 C12.0753296 18.33038203 18.49580794 23.46291631 23.25 35.53125 C27.01561508 49.02748103 23.05726865 63.0948654 16.60400391 75.03662109 C11.32686025 84.23433446 4.39537816 92.08041389 -3.8671875 98.6953125 C-2.43489934 100.01349804 -0.99616266 101.32467954 0.4453125 102.6328125 C1.64607422 103.72916016 1.64607422 103.72916016 2.87109375 104.84765625 C7.59899136 108.70999747 13.30864873 108.18137009 19.1328125 107.6953125 C22.87311435 106.09232599 23.86439715 105.09793552 26.1328125 101.6953125 C26.52669038 99.37143303 26.86767335 97.03737501 27.1328125 94.6953125 C26.1428125 94.6953125 25.1528125 94.6953125 24.1328125 94.6953125 C23.41867971 86.67407098 22.98755753 78.74889388 23.1328125 70.6953125 C27.09437129 72.23842538 29.07253246 74.72822798 31.6953125 78.0078125 C32.45972656 78.95269531 33.22414063 79.89757812 34.01171875 80.87109375 C39.1328125 87.68978764 39.1328125 87.68978764 39.1328125 92.6953125 C38.4728125 92.6953125 37.8128125 92.6953125 37.1328125 92.6953125 C37.1946875 93.8503125 37.2565625 95.0053125 37.3203125 96.1953125 C37.29254308 101.42522059 36.30934911 106.22481836 32.7734375 110.23828125 C26.35785583 115.87671772 20.02286623 116.22357406 11.8046875 116.01171875 C2.53746539 115.21316025 -3.63093877 109.17141695 -9.8671875 102.6953125 C-10.43824219 103.02144531 -11.00929688 103.34757812 -11.59765625 103.68359375 C-23.30679755 109.99424383 -35.20348669 112.52691616 -48.09375 108.73046875 C-58.16118309 104.9729057 -65.22541334 97.60918386 -69.7421875 88.0078125 C-71.96113165 82.93069195 -73.01240203 78.42468593 -72.9296875 72.8828125 C-72.92066406 72.09261719 -72.91164063 71.30242187 -72.90234375 70.48828125 C-72.89074219 69.89660156 -72.87914063 69.30492188 -72.8671875 68.6953125 C-75.93246264 71.05321645 -77.58761237 72.405723 -78.421875 76.25390625 C-78.65455405 78.7393416 -78.81388763 81.19990964 -78.8671875 83.6953125 C-78.26390625 83.98535156 -77.660625 84.27539062 -77.0390625 84.57421875 C-74.30745069 85.98424139 -72.13206902 87.61917111 -69.8671875 89.6953125 C-69.8671875 90.6853125 -69.8671875 91.6753125 -69.8671875 92.6953125 C-73.08170019 94.30256885 -76.30331286 93.75279435 -79.8671875 93.6953125 C-83.62726353 87.09763243 -83.9191688 81.14401879 -82.8671875 73.6953125 C-80.84996645 69.19018548 -78.35367663 66.47087205 -73.9921875 64.1953125 C-73.2909375 64.0303125 -72.5896875 63.8653125 -71.8671875 63.6953125 C-71.8053125 62.4578125 -71.7434375 61.2203125 -71.6796875 59.9453125 C-70.00101658 45.80913631 -61.11280473 33.93818646 -50.6171875 24.8203125 C-45.34798426 20.70610653 -39.7284264 17.97492395 -33.640625 15.30078125 C-30.74540865 14.02788548 -30.74540865 14.02788548 -30.19140625 11.75 C-30.08441406 11.07195313 -29.97742187 10.39390625 -29.8671875 9.6953125 C-23.74989101 1.7474036 -9.99740905 -6.98563729 0 0 Z M-15.8671875 3.6953125 C-15.8671875 4.6853125 -15.8671875 5.6753125 -15.8671875 6.6953125 C-16.5271875 6.7571875 -17.1871875 6.8190625 -17.8671875 6.8828125 C-22.05376586 8.01667747 -25.29269742 10.29162314 -28.8671875 12.6953125 C-25.99613351 14.1308395 -24.00793974 13.2336211 -20.8671875 12.6953125 C-18.57635461 12.63008377 -16.28382956 12.6094284 -13.9921875 12.6328125 C-12.83976562 12.64183594 -11.68734375 12.65085937 -10.5 12.66015625 C-9.63117188 12.67175781 -8.76234375 12.68335938 -7.8671875 12.6953125 C-6.5471875 10.3853125 -5.2271875 8.0753125 -3.8671875 5.6953125 C-4.5271875 4.7053125 -5.1871875 3.7153125 -5.8671875 2.6953125 C-9.58358889 2.42502876 -12.3243885 2.5143795 -15.8671875 3.6953125 Z M-54.8671875 32.6953125 C-55.43179688 33.23671875 -55.99640625 33.778125 -56.578125 34.3359375 C-63.62161024 41.7148268 -68.01655959 51.63139007 -68.8671875 61.6953125 C-57.9021757 60.72993038 -48.17049844 58.57385771 -37.8671875 54.6953125 C-38.8671875 56.6953125 -38.8671875 56.6953125 -41.71875 57.84375 C-42.96398437 58.24851563 -44.20921875 58.65328125 -45.4921875 59.0703125 C-46.48424194 59.39358521 -46.48424194 59.39358521 -47.49633789 59.72338867 C-54.54799916 61.98301406 -61.69146584 63.87339168 -68.8671875 65.6953125 C-68.2071875 66.0253125 -67.5471875 66.3553125 -66.8671875 66.6953125 C-66.39655435 68.34252851 -65.93089423 69.99140259 -65.49609375 71.6484375 C-63.97091186 76.61238354 -62.23145944 80.78579787 -57.8671875 83.6953125 C-57.45874827 86.40734902 -57.73381883 88.9390267 -57.8671875 91.6953125 C-59.8471875 92.6853125 -59.8471875 92.6853125 -61.8671875 93.6953125 C-62.5271875 92.3753125 -63.1871875 91.0553125 -63.8671875 89.6953125 C-63.8671875 94.01197093 -61.75338178 95.6590708 -58.9296875 98.76171875 C-55.88255471 101.61840574 -52.74452895 103.22192275 -48.8671875 104.6953125 C-47.7946875 105.1078125 -46.7221875 105.5203125 -45.6171875 105.9453125 C-32.85389975 108.49797005 -22.41395611 104.94384369 -10.8671875 99.6953125 C-11.5271875 98.3753125 -12.1871875 97.0553125 -12.8671875 95.6953125 C-14.1871875 95.6953125 -15.5071875 95.6953125 -16.8671875 95.6953125 C-17.1971875 95.0353125 -17.5271875 94.3753125 -17.8671875 93.6953125 C-18.5065625 94.2934375 -19.1459375 94.8915625 -19.8046875 95.5078125 C-23.61259396 98.22774569 -27.40672887 99.41256623 -31.8671875 100.6953125 C-32.15290179 92.12388393 -32.15290179 92.12388393 -29.8671875 88.6953125 C-30.5271875 88.6953125 -31.1871875 88.6953125 -31.8671875 88.6953125 C-32.1971875 87.0453125 -32.5271875 85.3953125 -32.8671875 83.6953125 C-35.37266212 82.92439723 -37.3411392 82.6953125 -39.9921875 82.6953125 C-42.8671875 82.6953125 -42.8671875 82.6953125 -44.8671875 81.6953125 C-45.92071593 79.38565402 -46.92437846 77.0523351 -47.8671875 74.6953125 C-47.2071875 74.6953125 -46.5471875 74.6953125 -45.8671875 74.6953125 C-45.7021875 74.0146875 -45.5371875 73.3340625 -45.3671875 72.6328125 C-43.15417123 68.29898897 -39.61199261 65.71728314 -35.8671875 62.6953125 C-36.1971875 62.0353125 -36.5271875 61.3753125 -36.8671875 60.6953125 C-36.6796875 58.6953125 -36.6796875 58.6953125 -35.8671875 56.6953125 C-33.8046875 55.4453125 -33.8046875 55.4453125 -31.8671875 54.6953125 C-31.8671875 54.0353125 -31.8671875 53.3753125 -31.8671875 52.6953125 C-31.30128906 52.44136719 -30.73539063 52.18742187 -30.15234375 51.92578125 C-29.41886719 51.58160156 -28.68539062 51.23742188 -27.9296875 50.8828125 C-27.19878906 50.54636719 -26.46789063 50.20992187 -25.71484375 49.86328125 C-23.53689261 48.75931116 -23.53689261 48.75931116 -22.8671875 45.6953125 C-23.26116085 43.05726661 -23.26116085 43.05726661 -23.8671875 40.6953125 C-23.2484375 40.4065625 -22.6296875 40.1178125 -21.9921875 39.8203125 C-19.73392985 38.75811208 -19.73392985 38.75811208 -17.8671875 36.6953125 C-17.8671875 35.7053125 -17.8671875 34.7153125 -17.8671875 33.6953125 C-12.9171875 33.0353125 -7.9671875 32.3753125 -2.8671875 31.6953125 C-3.8571875 30.0453125 -4.8471875 28.3953125 -5.8671875 26.6953125 C-4.3821875 25.2103125 -4.3821875 25.2103125 -2.8671875 23.6953125 C-3.1971875 25.0153125 -3.5271875 26.3353125 -3.8671875 27.6953125 C-2.8771875 27.6953125 -1.8871875 27.6953125 -0.8671875 27.6953125 C-1.3621875 26.2103125 -1.3621875 26.2103125 -1.8671875 24.6953125 C-1.2071875 24.6953125 -0.5471875 24.6953125 0.1328125 24.6953125 C-0.3621875 22.7153125 -0.3621875 22.7153125 -0.8671875 20.6953125 C-2.1871875 20.6953125 -3.5071875 20.6953125 -4.8671875 20.6953125 C-5.3621875 19.7053125 -5.3621875 19.7053125 -5.8671875 18.6953125 C-3.2271875 18.3653125 -0.5871875 18.0353125 2.1328125 17.6953125 C-0.68228743 15.4179624 -0.68228743 15.4179624 -3.8671875 15.6953125 C-4.3621875 14.7053125 -4.3621875 14.7053125 -4.8671875 13.6953125 C-5.97513672 14.89414062 -5.97513672 14.89414062 -7.10546875 16.1171875 C-7.59080078 16.64231934 -8.07613281 17.16745117 -8.57617188 17.70849609 C-9.65521751 18.87724314 -10.73332619 20.04685586 -11.81054688 21.21728516 C-14.51520684 24.15524181 -17.22792331 27.08378138 -19.97265625 29.984375 C-20.46016357 30.50418945 -20.9476709 31.02400391 -21.44995117 31.55957031 C-22.79325162 32.99149851 -24.14254969 34.41779339 -25.4921875 35.84375 C-27.35391275 38.07904512 -28.66994379 39.97676255 -30.0546875 42.484375 C-31.8671875 45.6953125 -31.8671875 45.6953125 -33.8671875 46.6953125 C-33.2071875 44.7153125 -32.5471875 42.7353125 -31.8671875 40.6953125 C-32.8571875 40.6953125 -33.8471875 40.6953125 -34.8671875 40.6953125 C-34.8671875 40.0353125 -34.8671875 39.3753125 -34.8671875 38.6953125 C-33.5471875 38.3653125 -32.2271875 38.0353125 -30.8671875 37.6953125 C-30.3721875 38.6853125 -30.3721875 38.6853125 -29.8671875 39.6953125 C-29.42890625 39.05207031 -28.990625 38.40882812 -28.5390625 37.74609375 C-24.02854138 31.31951793 -19.17862351 25.58004654 -13.72949219 19.93676758 C-10.81123921 17.28294802 -10.81123921 17.28294802 -9.8671875 13.6953125 C-27.78955549 13.17697928 -42.29346182 20.16601694 -54.8671875 32.6953125 Z M12.1328125 24.6953125 C12.4628125 25.6853125 12.7928125 26.6753125 13.1328125 27.6953125 C13.1328125 26.7053125 13.1328125 25.7153125 13.1328125 24.6953125 C12.8028125 24.6953125 12.4728125 24.6953125 12.1328125 24.6953125 Z M14.1328125 27.6953125 C14.4628125 28.6853125 14.7928125 29.6753125 15.1328125 30.6953125 C15.1328125 29.7053125 15.1328125 28.7153125 15.1328125 27.6953125 C14.8028125 27.6953125 14.4728125 27.6953125 14.1328125 27.6953125 Z M16.1328125 30.6953125 C17.1328125 32.6953125 17.1328125 32.6953125 17.1328125 32.6953125 Z M17.1328125 32.6953125 C18.1328125 35.6953125 18.1328125 35.6953125 18.1328125 35.6953125 Z M18.1328125 35.6953125 C19.1328125 39.6953125 19.1328125 39.6953125 19.1328125 39.6953125 Z M-15.8671875 39.6953125 C-15.8671875 41.0153125 -15.8671875 42.3353125 -15.8671875 43.6953125 C-15.2071875 43.3653125 -14.5471875 43.0353125 -13.8671875 42.6953125 C-14.5271875 41.7053125 -15.1871875 40.7153125 -15.8671875 39.6953125 Z M19.1328125 39.6953125 C19.1328125 44.3153125 19.1328125 48.9353125 19.1328125 53.6953125 C19.4628125 53.6953125 19.7928125 53.6953125 20.1328125 53.6953125 C20.1328125 49.0753125 20.1328125 44.4553125 20.1328125 39.6953125 C19.8028125 39.6953125 19.4728125 39.6953125 19.1328125 39.6953125 Z M-9.8671875 52.6953125 C-9.8671875 53.3553125 -9.8671875 54.0153125 -9.8671875 54.6953125 C-8.8771875 54.3653125 -7.8871875 54.0353125 -6.8671875 53.6953125 C-7.8571875 53.3653125 -8.8471875 53.0353125 -9.8671875 52.6953125 Z M18.1328125 54.6953125 C19.1328125 57.6953125 19.1328125 57.6953125 19.1328125 57.6953125 Z M-28.8671875 58.6953125 C-26.66424092 61.99973237 -25.58169448 63.49917333 -21.6796875 64.5703125 C-20.2875 64.6321875 -20.2875 64.6321875 -18.8671875 64.6953125 C-18.5371875 64.3653125 -18.2071875 64.0353125 -17.8671875 63.6953125 C-16.18834512 63.3021477 -14.49868705 62.95445798 -12.8046875 62.6328125 C-11.88558594 62.45621094 -10.96648437 62.27960937 -10.01953125 62.09765625 C-9.30925781 61.96488281 -8.59898438 61.83210938 -7.8671875 61.6953125 C-8.1971875 61.0353125 -8.5271875 60.3753125 -8.8671875 59.6953125 C-9.8571875 59.6953125 -10.8471875 59.6953125 -11.8671875 59.6953125 C-12.5271875 59.0353125 -13.1871875 58.3753125 -13.8671875 57.6953125 C-13.8671875 58.6853125 -13.8671875 59.6753125 -13.8671875 60.6953125 C-14.8571875 60.6953125 -15.8471875 60.6953125 -16.8671875 60.6953125 C-17.1971875 60.0353125 -17.5271875 59.3753125 -17.8671875 58.6953125 C-17.8671875 59.3553125 -17.8671875 60.0153125 -17.8671875 60.6953125 C-19.5171875 61.0253125 -21.1671875 61.3553125 -22.8671875 61.6953125 C-22.8671875 61.0353125 -22.8671875 60.3753125 -22.8671875 59.6953125 C-22.2071875 59.3653125 -21.5471875 59.0353125 -20.8671875 58.6953125 C-21.5271875 58.0353125 -22.1871875 57.3753125 -22.8671875 56.6953125 C-26.05208757 56.4179624 -26.05208757 56.4179624 -28.8671875 58.6953125 Z M17.1328125 57.6953125 C14.7437927 62.22869582 14.7437927 62.22869582 14.4453125 67.1328125 C14.6721875 67.6484375 14.8990625 68.1640625 15.1328125 68.6953125 C17.5218323 64.16192918 17.5218323 64.16192918 17.8203125 59.2578125 C17.5934375 58.7421875 17.3665625 58.2265625 17.1328125 57.6953125 Z M8.1328125 61.6953125 C7.80667969 62.23800781 7.48054688 62.78070313 7.14453125 63.33984375 C6.70753906 64.05527344 6.27054688 64.77070312 5.8203125 65.5078125 C5.39105469 66.21550781 4.96179688 66.92320313 4.51953125 67.65234375 C3.20569979 69.58793207 1.7789279 71.0491971 0.1328125 72.6953125 C-0.1559375 73.4790625 -0.4446875 74.2628125 -0.7421875 75.0703125 C-2.93525375 80.18746708 -7.54899474 83.36413523 -11.8671875 86.6953125 C-10.4974711 90.69031868 -8.60996328 93.49540742 -5.8671875 96.6953125 C-5.8671875 95.7053125 -5.8671875 94.7153125 -5.8671875 93.6953125 C-5.27550781 93.4271875 -4.68382813 93.1590625 -4.07421875 92.8828125 C3.86009611 88.61372982 10.32515703 79.25374803 13.5703125 71.0703125 C13.7559375 70.2865625 13.9415625 69.5028125 14.1328125 68.6953125 C13.1428125 68.3653125 12.1528125 68.0353125 11.1328125 67.6953125 C11.1328125 66.0453125 11.1328125 64.3953125 11.1328125 62.6953125 C10.1428125 62.3653125 9.1528125 62.0353125 8.1328125 61.6953125 Z M-69.8671875 75.6953125 C-68.8671875 77.6953125 -68.8671875 77.6953125 -68.8671875 77.6953125 Z M-68.8671875 80.6953125 C-67.8671875 82.6953125 -67.8671875 82.6953125 -67.8671875 82.6953125 Z M-67.8671875 83.6953125 C-66.8671875 85.6953125 -66.8671875 85.6953125 -66.8671875 85.6953125 Z M-66.8671875 85.6953125 C-65.8671875 87.6953125 -65.8671875 87.6953125 -65.8671875 87.6953125 Z M-65.8671875 87.6953125 C-64.8671875 89.6953125 -64.8671875 89.6953125 -64.8671875 89.6953125 Z M-15.8671875 91.6953125 C-14.8671875 93.6953125 -14.8671875 93.6953125 -14.8671875 93.6953125 Z " fill="#ECECEC" transform="translate(82.8671875,1.3046875)"/>
<path d="M0 0 C0.886875 0.7425 1.77375 1.485 2.6875 2.25 C1.92582543 3.71313772 1.15279293 5.17036661 0.375 6.625 C-0.05425781 7.43710937 -0.48351562 8.24921875 -0.92578125 9.0859375 C-2.3125 11.25 -2.3125 11.25 -5.3125 13.25 C-6.17875 12.63125 -7.045 12.0125 -7.9375 11.375 C-15.36810087 6.69647353 -23.06656636 6.10491217 -31.65625 7.6796875 C-37.76384855 9.58243935 -41.32176897 13.62912319 -44.34765625 19.1328125 C-47.4443941 26.24810783 -47.26597873 33.33738339 -44.625 40.5625 C-41.9537739 46.563353 -38.15231803 50.25522153 -32.3125 53.25 C-25.37057765 55.88314296 -19.05860272 54.10044397 -12.51171875 51.41796875 C-10.27389098 50.22949539 -8.87305779 49.23971118 -7.3125 47.25 C-6.58208147 43.63976901 -6.58208147 43.63976901 -6.3125 40.25 C-9.9425 40.25 -13.5725 40.25 -17.3125 40.25 C-17.3125 36.29 -17.3125 32.33 -17.3125 28.25 C-9.7225 28.25 -2.1325 28.25 5.6875 28.25 C5.6875 40.79 5.6875 53.33 5.6875 66.25 C1.7275 66.25 -2.2325 66.25 -6.3125 66.25 C-6.6425 64.93 -6.9725 63.61 -7.3125 62.25 C-8.3025 62.86875 -9.2925 63.4875 -10.3125 64.125 C-18.64177644 68.85106832 -27.74139908 69.34954919 -36.953125 67.0625 C-45.85878563 63.99564998 -53.10898544 58.17845531 -57.59375 49.87890625 C-62.31771163 39.6042897 -63.35179048 27.10154825 -59.75 16.25 C-55.47840256 6.40740309 -48.7813963 -0.40798539 -39.0078125 -4.78125 C-26.39212885 -9.2484429 -11.02883588 -7.77333613 0 0 Z " fill="#FF7E00" transform="translate(339.3125,31.75)"/>
<path d="M0 0 C4.29 0 8.58 0 13 0 C13 9.9 13 19.8 13 30 C15.97 30 18.94 30 22 30 C22.27328125 29.28215332 22.5465625 28.56430664 22.828125 27.82470703 C23.98471074 25.03685349 25.30174851 22.4515423 26.75 19.8046875 C27.2759375 18.84175781 27.801875 17.87882812 28.34375 16.88671875 C28.8903125 15.89285156 29.436875 14.89898437 30 13.875 C30.5465625 12.87339844 31.093125 11.87179688 31.65625 10.83984375 C35.71851504 3.42222744 35.71851504 3.42222744 38 0 C40.62697064 -0.22137393 43.00893964 -0.28162025 45.625 -0.1875 C46.33140625 -0.17396484 47.0378125 -0.16042969 47.765625 -0.14648438 C49.51074128 -0.1111104 51.25546608 -0.05730221 53 0 C52.34280093 3.28976154 51.12449499 5.80338482 49.453125 8.703125 C48.9375 9.60160156 48.421875 10.50007813 47.890625 11.42578125 C47.07851562 12.82376953 47.07851562 12.82376953 46.25 14.25 C45.7240625 15.16652344 45.198125 16.08304688 44.65625 17.02734375 C42.23919848 21.22128711 39.79041084 25.3086922 37.046875 29.296875 C35.42194679 31.90969882 35.00556298 32.82910512 34.90234375 36 C36.35738095 39.97675647 38.33753095 43.40812356 40.5625 47 C41.46812428 48.50089418 42.37306125 50.00220327 43.27734375 51.50390625 C43.95966064 52.62756592 43.95966064 52.62756592 44.65576172 53.77392578 C46.68719185 57.13799769 48.66410894 60.53195523 50.625 63.9375 C51.60339844 65.62166016 51.60339844 65.62166016 52.6015625 67.33984375 C54 70 54 70 54 72 C48.72 72 43.44 72 38 72 C37.09636719 70.32550781 36.19273437 68.65101562 35.26171875 66.92578125 C34.07037254 64.72132172 32.87896297 62.51689643 31.6875 60.3125 C31.09259766 59.20970703 30.49769531 58.10691406 29.88476562 56.97070312 C29.01948242 55.3706543 29.01948242 55.3706543 28.13671875 53.73828125 C27.60780029 52.75899658 27.07888184 51.77971191 26.53393555 50.77075195 C25.50355393 48.90957083 24.42551474 47.0740591 23.30395508 45.26635742 C22 43 22 43 22 41 C19.03 41 16.06 41 13 41 C13 51.23 13 61.46 13 72 C8.71 72 4.42 72 0 72 C0 48.24 0 24.48 0 0 Z " fill="#FFFFFF" transform="translate(192,25)"/>
<path d="M0 0 C35.32352941 0 35.32352941 0 43.3125 5.125 C48.64354716 10.82798068 50.24962198 16.15783019 50.5625 23.9375 C50.33384303 30.56140662 49.16928748 35.7522825 45 41 C37.65027031 47.49912807 31.1240409 48.15857434 21.6875 48.0625 C17.3871875 48.0315625 17.3871875 48.0315625 13 48 C13 55.92 13 63.84 13 72 C8.71 72 4.42 72 0 72 C0 48.24 0 24.48 0 0 Z M13 12 C13 19.92 13 27.84 13 36 C23.48179381 36.63201926 23.48179381 36.63201926 33 33 C36.00473503 29.4944758 36.48341613 26.39870688 36.28125 21.92578125 C35.84842917 18.96216082 34.94527891 17.26949206 33 15 C26.38074003 10.95057037 20.5828476 11.78539111 13 12 Z " fill="#FFFFFF" transform="translate(132,25)"/>
<path d="M0 0 C1.1328125 1.6953125 1.1328125 1.6953125 0.9453125 5.1953125 C0.1328125 8.6953125 0.1328125 8.6953125 -1.8671875 11.6953125 C-1.08214844 12.05882812 -0.29710938 12.42234375 0.51171875 12.796875 C12.0753296 18.33038203 18.49580794 23.46291631 23.25 35.53125 C27.01603967 49.02900279 23.05472901 63.08969533 16.60620117 75.03442383 C11.80869188 83.40177154 5.20878401 92.29793851 -2.8671875 97.6953125 C-4.3521875 97.2003125 -4.3521875 97.2003125 -5.8671875 96.6953125 C-5.8671875 95.7053125 -5.8671875 94.7153125 -5.8671875 93.6953125 C-4.43359375 92.29296875 -4.43359375 92.29296875 -2.4296875 90.7578125 C7.11852374 82.69675628 16.02393797 70.51452373 17.61376953 57.87011719 C17.69623396 54.52264135 17.66992849 51.2489798 17.48779297 47.90942383 C17.381953 45.86622019 17.34227517 43.82873926 17.30859375 41.78320312 C17.02480809 34.72663045 16.5205277 29.61122186 11.78588867 24.18603516 C6.84021922 19.72609458 1.20348231 17.24484772 -4.8671875 14.6953125 C-5.86685547 15.78585938 -5.86685547 15.78585938 -6.88671875 16.8984375 C-7.32677246 17.37829102 -7.76682617 17.85814453 -8.22021484 18.35253906 C-9.2044368 19.42665483 -10.1878172 20.50154226 -11.17041016 21.57714844 C-13.71845915 24.36405173 -16.27751689 27.13817835 -18.87109375 29.8828125 C-23.86331311 35.19396988 -28.12017744 40.41000531 -31.8671875 46.6953125 C-32.5271875 46.6953125 -33.1871875 46.6953125 -33.8671875 46.6953125 C-33.5371875 45.0453125 -33.2071875 43.3953125 -32.8671875 41.6953125 C-33.8571875 41.3653125 -34.8471875 41.0353125 -35.8671875 40.6953125 C-35.5371875 39.7053125 -35.2071875 38.7153125 -34.8671875 37.6953125 C-34.12855469 37.79457031 -33.38992187 37.89382812 -32.62890625 37.99609375 C-29.71794903 37.96317281 -29.71794903 37.96317281 -27.76171875 35.67578125 C-27.07464844 34.75410156 -26.38757812 33.83242188 -25.6796875 32.8828125 C-24.91269531 31.88765625 -24.14570312 30.8925 -23.35546875 29.8671875 C-22.95408691 29.34576172 -22.55270508 28.82433594 -22.13916016 28.28710938 C-20.00843846 25.62064 -17.69027199 23.13146186 -15.3671875 20.6328125 C-12.25506423 17.41448766 -12.25506423 17.41448766 -9.8671875 13.6953125 C-28.64131805 16.26111034 -45.46674705 21.28795162 -57.8671875 36.6953125 C-63.12782042 44.5436081 -67.03321281 52.33440004 -68.8671875 61.6953125 C-57.94830315 59.68001693 -47.27100719 57.67075579 -36.8671875 53.6953125 C-37.4375 55.53515625 -37.4375 55.53515625 -38.8671875 57.6953125 C-41.921875 59.07421875 -41.921875 59.07421875 -45.7421875 60.2578125 C-46.73907593 60.57141724 -46.73907593 60.57141724 -47.75610352 60.89135742 C-53.72931744 62.7378829 -59.77341255 64.29953164 -65.8671875 65.6953125 C-65.8671875 69.23112852 -64.88834815 71.08450237 -63.3671875 74.2578125 C-60.8671875 79.48697917 -60.8671875 79.48697917 -60.8671875 81.6953125 C-59.5471875 82.3553125 -58.2271875 83.0153125 -56.8671875 83.6953125 C-57.7421875 91.4453125 -57.7421875 91.4453125 -58.8671875 93.6953125 C-59.8571875 93.6953125 -60.8471875 93.6953125 -61.8671875 93.6953125 C-62.3621875 93.2003125 -62.3621875 93.2003125 -62.8671875 92.6953125 C-57.32815403 100.16461521 -51.0282077 103.86310846 -41.8671875 105.6953125 C-33.01806775 106.54544627 -26.08676665 104.84107736 -17.8671875 101.6953125 C-16.12018386 101.10306588 -14.37045214 100.51875899 -12.6171875 99.9453125 C-11.3796875 99.5328125 -10.1421875 99.1203125 -8.8671875 98.6953125 C-9.1015625 100.53515625 -9.1015625 100.53515625 -9.8671875 102.6953125 C-17.66457937 108.57667859 -30.24055048 111.76493884 -39.8671875 110.6953125 C-50.42386978 108.75236484 -58.43214789 104.27809295 -65.296875 95.9765625 C-70.11301632 88.97997909 -73.05686088 81.40342928 -72.9296875 72.8828125 C-72.92066406 72.09261719 -72.91164063 71.30242187 -72.90234375 70.48828125 C-72.89074219 69.89660156 -72.87914063 69.30492188 -72.8671875 68.6953125 C-75.93246264 71.05321645 -77.58761237 72.405723 -78.421875 76.25390625 C-78.65455405 78.7393416 -78.81388763 81.19990964 -78.8671875 83.6953125 C-78.26390625 83.98535156 -77.660625 84.27539062 -77.0390625 84.57421875 C-74.30745069 85.98424139 -72.13206902 87.61917111 -69.8671875 89.6953125 C-69.8671875 90.6853125 -69.8671875 91.6753125 -69.8671875 92.6953125 C-73.08170019 94.30256885 -76.30331286 93.75279435 -79.8671875 93.6953125 C-83.62726353 87.09763243 -83.9191688 81.14401879 -82.8671875 73.6953125 C-80.84996645 69.19018548 -78.35367663 66.47087205 -73.9921875 64.1953125 C-73.2909375 64.0303125 -72.5896875 63.8653125 -71.8671875 63.6953125 C-71.8053125 62.4578125 -71.7434375 61.2203125 -71.6796875 59.9453125 C-70.00101658 45.80913631 -61.11280473 33.93818646 -50.6171875 24.8203125 C-45.34798426 20.70610653 -39.7284264 17.97492395 -33.640625 15.30078125 C-30.74540865 14.02788548 -30.74540865 14.02788548 -30.19140625 11.75 C-30.08441406 11.07195313 -29.97742187 10.39390625 -29.8671875 9.6953125 C-23.74989101 1.7474036 -9.99740905 -6.98563729 0 0 Z M-15.8671875 3.6953125 C-15.8671875 4.6853125 -15.8671875 5.6753125 -15.8671875 6.6953125 C-16.5271875 6.7571875 -17.1871875 6.8190625 -17.8671875 6.8828125 C-22.05376586 8.01667747 -25.29269742 10.29162314 -28.8671875 12.6953125 C-25.99613351 14.1308395 -24.00793974 13.2336211 -20.8671875 12.6953125 C-18.57635461 12.63008377 -16.28382956 12.6094284 -13.9921875 12.6328125 C-12.83976562 12.64183594 -11.68734375 12.65085937 -10.5 12.66015625 C-9.63117188 12.67175781 -8.76234375 12.68335938 -7.8671875 12.6953125 C-6.5471875 10.3853125 -5.2271875 8.0753125 -3.8671875 5.6953125 C-4.5271875 4.7053125 -5.1871875 3.7153125 -5.8671875 2.6953125 C-9.58358889 2.42502876 -12.3243885 2.5143795 -15.8671875 3.6953125 Z M17.1328125 32.6953125 C18.1328125 35.6953125 18.1328125 35.6953125 18.1328125 35.6953125 Z M18.1328125 35.6953125 C19.1328125 39.6953125 19.1328125 39.6953125 19.1328125 39.6953125 Z M19.1328125 39.6953125 C19.1328125 44.3153125 19.1328125 48.9353125 19.1328125 53.6953125 C19.4628125 53.6953125 19.7928125 53.6953125 20.1328125 53.6953125 C20.1328125 49.0753125 20.1328125 44.4553125 20.1328125 39.6953125 C19.8028125 39.6953125 19.4728125 39.6953125 19.1328125 39.6953125 Z M18.1328125 54.6953125 C19.1328125 57.6953125 19.1328125 57.6953125 19.1328125 57.6953125 Z M-69.8671875 75.6953125 C-68.8671875 77.6953125 -68.8671875 77.6953125 -68.8671875 77.6953125 Z M-68.8671875 80.6953125 C-67.8671875 82.6953125 -67.8671875 82.6953125 -67.8671875 82.6953125 Z M-67.8671875 83.6953125 C-66.8671875 85.6953125 -66.8671875 85.6953125 -66.8671875 85.6953125 Z M-66.8671875 85.6953125 C-65.8671875 87.6953125 -65.8671875 87.6953125 -65.8671875 87.6953125 Z M-65.8671875 87.6953125 C-64.8671875 89.6953125 -64.8671875 89.6953125 -64.8671875 89.6953125 Z " fill="#B7B7B7" transform="translate(82.8671875,1.3046875)"/>
<path d="M0 0 C0.680625 0.33 1.36125 0.66 2.0625 1 C5.50840238 2.17307315 8.38397422 2.14180493 12 2 C9 4 9 4 7 5 C9.0140476 8.0210714 10.63279613 9.60667426 14 11 C13.34 11 12.68 11 12 11 C12.680625 12.051875 12.680625 12.051875 13.375 13.125 C15 16 15 16 15.875 18.8125 C17.53361587 23.51191162 19.69839744 28.68717255 24.1640625 31.234375 C24.76992187 31.48703125 25.37578125 31.7396875 26 32 C25.01 32.33 24.02 32.66 23 33 C30.60740939 46.07848663 30.60740939 46.07848663 43 54 C47.99946272 54.52431588 52.39848228 54.68636474 57.0625 52.6875 C61.04092223 49.22242257 61.42789325 46.05360966 62 41 C61.01 41 60.02 41 59 41 C58.28586721 32.97875848 57.85474503 25.05358138 58 17 C61.96155879 18.54311288 63.93971996 21.03291548 66.5625 24.3125 C67.32691406 25.25738281 68.09132813 26.20226562 68.87890625 27.17578125 C74 33.99447514 74 33.99447514 74 39 C73.34 39 72.68 39 72 39 C72.061875 40.155 72.12375 41.31 72.1875 42.5 C72.15973058 47.72990809 71.17653661 52.52950586 67.640625 56.54296875 C61.22504333 62.18140522 54.89005373 62.52826156 46.671875 62.31640625 C41.93905761 61.90857837 38.7961114 60.79285338 35 58 C34.43796875 57.59136719 33.8759375 57.18273437 33.296875 56.76171875 C30.41925985 54.50572435 27.84192687 52.17220738 26 49 C26 47.68 26 46.36 26 45 C25.01 45 24.02 45 23 45 C22.67 44.34 22.34 43.68 22 43 C20.35636866 42.27840576 18.68949614 41.60648579 17 41 C15.9171875 41.928125 15.9171875 41.928125 14.8125 42.875 C10.73021728 45.95939139 8.13271012 47 3 47 C1.59542263 44.19084526 1.75104843 42.11189466 2 39 C3.5 36.625 3.5 36.625 5 35 C4.34 35 3.68 35 3 35 C2.34 33.35 1.68 31.7 1 30 C0.38511719 30.02320312 -0.22976562 30.04640625 -0.86328125 30.0703125 C-2.07564453 30.09738281 -2.07564453 30.09738281 -3.3125 30.125 C-4.51326172 30.15980469 -4.51326172 30.15980469 -5.73828125 30.1953125 C-8 30 -8 30 -11 28 C-12.61785127 25.36034793 -13 24.15987325 -13 21 C-12.34 21 -11.68 21 -11 21 C-10.9071875 19.9171875 -10.9071875 19.9171875 -10.8125 18.8125 C-9.44185055 14.06794422 -5.99495696 11.66330464 -2 9 C-2.33 8.34 -2.66 7.68 -3 7 C-2.14883791 4.56810832 -1.15154357 2.30308715 0 0 Z M19 38 C20 40 20 40 20 40 Z " fill="#D6D7D6" transform="translate(48,55)"/>
<path d="M0 0 C4.29 0 8.58 0 13 0 C13 23.76 13 47.52 13 72 C8.71 72 4.42 72 0 72 C0 48.24 0 24.48 0 0 Z " fill="#FFFFFF" transform="translate(255,25)"/>
<path d="M0 0 C0 0.99 0 1.98 0 3 C-9.12345091 7.21614019 -18.24726711 9.78459494 -28 12 C-28 15.53581602 -27.02116065 17.38918987 -25.5 20.5625 C-23 25.79166667 -23 25.79166667 -23 28 C-21.68 28.66 -20.36 29.32 -19 30 C-19.875 37.75 -19.875 37.75 -21 40 C-21.99 40 -22.98 40 -24 40 C-24.495 39.505 -24.495 39.505 -25 39 C-19.46096653 46.46930271 -13.1610202 50.16779596 -4 52 C4.84911975 52.85013377 11.78042085 51.14576486 20 48 C21.74700364 47.40775338 23.49673536 46.82344649 25.25 46.25 C26.4875 45.8375 27.725 45.425 29 45 C28.765625 46.83984375 28.765625 46.83984375 28 49 C20.20260813 54.88136609 7.62663702 58.06962634 -2 57 C-12.55668228 55.05705234 -20.56496039 50.58278045 -27.4296875 42.28125 C-32.24582882 35.28466659 -35.18967338 27.70811678 -35.0625 19.1875 C-35.05347656 18.39730469 -35.04445313 17.60710937 -35.03515625 16.79296875 C-35.02355469 16.20128906 -35.01195312 15.60960938 -35 15 C-38.06527514 17.35790395 -39.72042487 18.7104105 -40.5546875 22.55859375 C-40.78736655 25.0440291 -40.94670013 27.50459714 -41 30 C-40.39671875 30.29003906 -39.7934375 30.58007812 -39.171875 30.87890625 C-36.44026319 32.28892889 -34.26488152 33.92385861 -32 36 C-32 36.99 -32 37.98 -32 39 C-35.21451269 40.60725635 -38.43612536 40.05748185 -42 40 C-45.75534445 33.41062228 -46.06780395 27.44072913 -45 20 C-42.85769174 15.48633166 -40.12311796 12.74874531 -36 10 C-33.3125 9.875 -33.3125 9.875 -31 10 C-31 9.34 -31 8.68 -31 8 C-30.45174561 7.89977539 -29.90349121 7.79955078 -29.33862305 7.69628906 C-14.36394439 4.95359762 -14.36394439 4.95359762 0 0 Z M-32 22 C-31 24 -31 24 -31 24 Z M-31 27 C-30 29 -30 29 -30 29 Z M-30 30 C-29 32 -29 32 -29 32 Z M-29 32 C-28 34 -28 34 -28 34 Z M-28 34 C-27 36 -27 36 -27 36 Z " fill="#959696" transform="translate(45,55)"/>
<path d="M0 0 C1.765625 0.12890625 1.765625 0.12890625 4 1 C9.22123481 8.09693051 12.8887939 16.58239398 16.5625 24.5625 C16.92118164 25.32361084 17.27986328 26.08472168 17.64941406 26.86889648 C19.09311279 30.10786265 20.03454501 32.30909981 19.85546875 35.890625 C18.27479315 39.78818128 15.0918747 41.46737819 11.4375 43.25 C9 44 9 44 5 44 C3.59542263 41.19084526 3.75104843 39.11189466 4 36 C5.5 33.625 5.5 33.625 7 32 C6.34 32 5.68 32 5 32 C4.34 30.35 3.68 28.7 3 27 C2.38511719 27.02320312 1.77023438 27.04640625 1.13671875 27.0703125 C-0.07564453 27.09738281 -0.07564453 27.09738281 -1.3125 27.125 C-2.51326172 27.15980469 -2.51326172 27.15980469 -3.73828125 27.1953125 C-6 27 -6 27 -9 25 C-10.61785127 22.36034793 -11 21.15987325 -11 18 C-10.34 18 -9.68 18 -9 18 C-8.9071875 16.9171875 -8.9071875 16.9171875 -8.8125 15.8125 C-7.44185055 11.06794422 -3.99495696 8.66330464 0 6 C-0.33 5.34 -0.66 4.68 -1 4 C-0.5625 1.875 -0.5625 1.875 0 0 Z " fill="#ECECEC" transform="translate(46,58)"/>
<path d="M0 0 C0.8125 1.6875 0.8125 1.6875 1 4 C-1.25 6.5 -1.25 6.5 -4 9 C-4.44988281 9.66644531 -4.89976563 10.33289063 -5.36328125 11.01953125 C-7.36021854 13.43587303 -9.0143672 14.11055634 -11.9375 15.1875 C-13.21947266 15.67283203 -13.21947266 15.67283203 -14.52734375 16.16796875 C-16.67415077 16.89035405 -18.79383613 17.49324774 -21 18 C-21 16.35 -21 14.7 -21 13 C-21.99 13.33 -22.98 13.66 -24 14 C-24.62092718 15.81296615 -24.62092718 15.81296615 -25 18 C-25.6469365 19.6744239 -26.30959426 21.34302621 -27 23 C-28.32 23 -29.64 23 -31 23 C-31.33 24.32 -31.66 25.64 -32 27 C-32.8971875 27.12375 -32.8971875 27.12375 -33.8125 27.25 C-36.599343 28.20548903 -37.32876986 29.6450848 -39 32 C-39.66 32 -40.32 32 -41 32 C-40.79387339 22.72430262 -34.20031078 14.48869733 -28 8 C-18.44663919 -0.25772527 -12.55508143 -4.09961843 0 0 Z M-15 3 C-15.66 4.65 -16.32 6.3 -17 8 C-15.68 7.34 -14.36 6.68 -13 6 C-13.33 5.01 -13.66 4.02 -14 3 C-14.33 3 -14.66 3 -15 3 Z M-18 8 C-18 11 -18 11 -18 11 Z " fill="#9E9F9F" transform="translate(58,25)"/>
<path d="M0 0 C1.74627478 2.61941217 2.38722388 4.03824877 3 7 C3.33 5.02 3.66 3.04 4 1 C8.75443112 8.13164668 7.64793433 17.72338932 7 26 C6.17359528 30.00452115 4.8419316 33.36232945 3 37 C2.39865234 38.31097656 2.39865234 38.31097656 1.78515625 39.6484375 C-2.80942925 48.94414961 -10.27658056 59.20857844 -19 65 C-19.99 64.67 -20.98 64.34 -22 64 C-22 63.01 -22 62.02 -22 61 C-20.56640625 59.59765625 -20.56640625 59.59765625 -18.5625 58.0625 C-9.14714868 50.11361048 0.10288944 37.79327932 1.38427734 25.23339844 C1.36706562 21.35928554 1.17195807 17.54990854 0.875 13.6875 C0.79641599 12.3497858 0.72087977 11.01188898 0.6484375 9.67382812 C0.4620009 6.44614443 0.24548226 3.22363714 0 0 Z M2 22 C3 25 3 25 3 25 Z " fill="#B7B8B7" transform="translate(99,34)"/>
<path d="M0 0 C0.680625 0.33 1.36125 0.66 2.0625 1 C5.50840238 2.17307315 8.38397422 2.14180493 12 2 C9 4 9 4 7 5 C9.0140476 8.0210714 10.63279613 9.60667426 14 11 C13.34 11 12.68 11 12 11 C12.45375 11.70125 12.9075 12.4025 13.375 13.125 C15 16 15 16 15.875 18.8125 C17.53361587 23.51191162 19.69839744 28.68717255 24.1640625 31.234375 C24.76992187 31.48703125 25.37578125 31.7396875 26 32 C24.515 32.495 24.515 32.495 23 33 C23.37253906 33.55429688 23.74507812 34.10859375 24.12890625 34.6796875 C24.60199219 35.40414062 25.07507813 36.12859375 25.5625 36.875 C26.03816406 37.59429687 26.51382813 38.31359375 27.00390625 39.0546875 C27.33261719 39.69664063 27.66132812 40.33859375 28 41 C27.67 41.66 27.34 42.32 27 43 C26.34 43 25.68 43 25 43 C24.34 43.66 23.68 44.32 23 45 C22.67 44.34 22.34 43.68 22 43 C21.34 42.855625 20.68 42.71125 20 42.5625 C19.01 42.2840625 19.01 42.2840625 18 42 C17 39 17 39 17 36 C16.20463664 34.0835958 16.20463664 34.0835958 15.125 32.125 C13.56907338 29.12779398 12.2133909 26.15481634 11 23 C6.34372142 11.67444825 6.34372142 11.67444825 -1 2 C-0.67 1.34 -0.34 0.68 0 0 Z M19 38 C20 40 20 40 20 40 Z " fill="#9E9E9E" transform="translate(48,55)"/>
<path d="M0 0 C0.66 1.32 1.32 2.64 2 4 C1.34 4.66 0.68 5.32 0 6 C0.83789062 5.83628906 1.67578125 5.67257813 2.5390625 5.50390625 C6.20517307 4.97012717 9.67239385 4.90256975 13.375 4.9375 C15.24285156 4.95103516 15.24285156 4.95103516 17.1484375 4.96484375 C18.55996094 4.98224609 18.55996094 4.98224609 20 5 C19.34 6.32 18.68 7.64 18 9 C17.505 8.01 17.505 8.01 17 7 C-1.79440199 9.56856827 -18.56846418 14.60382939 -31 30 C-36.8762856 38.57620061 -40.34491718 46.62125149 -42 57 C-42.99 57 -43.98 57 -45 57 C-44.26109791 42.22195817 -36.66868222 30.58808046 -26.3984375 20.42578125 C-20.35756147 15.17788157 -14.03883271 11.79688422 -6.7734375 8.60546875 C-3.86829001 7.31187075 -3.86829001 7.31187075 -3.19921875 4.91015625 C-3.13347656 4.27980469 -3.06773438 3.64945313 -3 3 C-1.4375 1.25 -1.4375 1.25 0 0 Z " fill="#878888" transform="translate(56,8)"/>
<path d="M0 0 C2.97 0 5.94 0 9 0 C9.99 2.31 10.98 4.62 12 7 C12.99 4.69 13.98 2.38 15 0 C19.29 0 23.58 0 28 0 C26.96846241 4.12615036 25.71595986 5.8459821 23 9 C25.475 9.495 25.475 9.495 28 10 C28 10.66 28 11.32 28 12 C24.7 12 21.4 12 18 12 C19.1858237 8.62496331 20.27573689 6.35277269 23 4 C20.525 3.505 20.525 3.505 18 3 C17.61908203 3.76183594 17.61908203 3.76183594 17.23046875 4.5390625 C15.15364583 8.69270833 13.07682292 12.84635417 11 17 C9.35 17 7.7 17 6 17 C6.33 16.01 6.66 15.02 7 14 C7.66 14 8.32 14 9 14 C10.30263511 11.14697801 10.30263511 11.14697801 9.22265625 8.95703125 C8.83980469 8.24933594 8.45695312 7.54164062 8.0625 6.8125 C7.68222656 6.09707031 7.30195313 5.38164063 6.91015625 4.64453125 C6.60980469 4.10183594 6.30945313 3.55914062 6 3 C5.01 3.66 4.02 4.32 3 5 C2.26393501 8.56769552 2.26393501 8.56769552 2 12 C1.34 12 0.68 12 0 12 C0 8.04 0 4.08 0 0 Z " fill="#FFFFFF" transform="translate(439,57)"/>
<path d="M0 0 C0.80824219 0.10183594 1.61648437 0.20367188 2.44921875 0.30859375 C3.06410156 0.39238281 3.67898437 0.47617187 4.3125 0.5625 C4.953125 2.40625 4.953125 2.40625 5.3125 4.5625 C3.0625 7.0625 3.0625 7.0625 0.3125 9.5625 C-0.1 10.26375 -0.5125 10.965 -0.9375 11.6875 C-3.79164196 14.74550924 -7.68816237 15.60613665 -11.6875 16.5625 C-12.6775 16.5625 -13.6675 16.5625 -14.6875 16.5625 C-14.36256385 12.9882023 -14.04879314 11.00537547 -11.75 8.1875 C-9.6875 6.5625 -9.6875 6.5625 -7.6875 6.5625 C-7.6875 5.5725 -7.6875 4.5825 -7.6875 3.5625 C-6.6975 3.5625 -5.7075 3.5625 -4.6875 3.5625 C-4.6875 2.9025 -4.6875 2.2425 -4.6875 1.5625 C-6.3375 1.8925 -7.9875 2.2225 -9.6875 2.5625 C-6.54519271 -0.57980729 -4.18151679 -0.54541523 0 0 Z " fill="#CDCECD" transform="translate(53.6875,24.4375)"/>
<path d="M0 0 C-0.66 1.65 -1.32 3.3 -2 5 C-0.68 3.68 0.64 2.36 2 1 C2.66 1.33 3.32 1.66 4 2 C3.39009109 5.55780196 2.4216319 8.6828589 1 12 C-0.32 12 -1.64 12 -3 12 C-3.33 13.32 -3.66 14.64 -4 16 C-4.8971875 16.12375 -4.8971875 16.12375 -5.8125 16.25 C-8.599343 17.20548903 -9.32876986 18.6450848 -11 21 C-11.66 21 -12.32 21 -13 21 C-12.82694557 13.21255061 -8.43212575 6.91764598 -3.3984375 1.171875 C-2 0 -2 0 0 0 Z " fill="#D8D9D9" transform="translate(30,36)"/>
<path d="M0 0 C0.33 0 0.66 0 1 0 C1 7.58425692 -3.4188504 12.28198424 -8 18 C-8.556875 18.69996094 -9.11375 19.39992188 -9.6875 20.12109375 C-12.47873898 23.5011097 -15.29413119 26.59619321 -19 29 C-19.99 28.67 -20.98 28.34 -22 28 C-22 27.01 -22 26.02 -22 25 C-20.56640625 23.59765625 -20.56640625 23.59765625 -18.5625 22.0625 C-12.20259971 16.75691473 -6.43531686 9.5757777 -3 2 C-2.01 2 -1.02 2 0 2 C0 1.34 0 0.68 0 0 Z " fill="#A3A4A3" transform="translate(99,70)"/>
<path d="M0 0 C0.99 0.495 0.99 0.495 2 1 C2 1.99 2 2.98 2 4 C2.99 4.33 3.98 4.66 5 5 C5.309375 6.134375 5.61875 7.26875 5.9375 8.4375 C6.60900775 12.06259067 6.60900775 12.06259067 9.125 13.4375 C9.74375 13.623125 10.3625 13.80875 11 14 C10.125 21.75 10.125 21.75 9 24 C8.01 24 7.02 24 6 24 C4.6484375 22.42578125 4.6484375 22.42578125 3.375 20.3125 C2.94960938 19.62800781 2.52421875 18.94351563 2.0859375 18.23828125 C0.01063227 13.96076364 -0.11907098 9.88289169 -0.0625 5.1875 C-0.05347656 4.21167969 -0.04445313 3.23585938 -0.03515625 2.23046875 C-0.02355469 1.49441406 -0.01195312 0.75835937 0 0 Z " fill="#CDCDCD" transform="translate(15,71)"/>
<path d="M0 0 C7.54854063 1.16538873 13.07648003 5.50751079 17.875 11.3125 C24.42140041 20.47138503 24.38920865 29.05891229 24 40 C23.67 40 23.34 40 23 40 C22.93941406 39.02417969 22.87882812 38.04835937 22.81640625 37.04296875 C22.73261719 35.77066406 22.64882812 34.49835937 22.5625 33.1875 C22.48128906 31.92292969 22.40007812 30.65835938 22.31640625 29.35546875 C22.12815453 26.00818107 22.12815453 26.00818107 21 23 C20.34 23.99 19.68 24.98 19 26 C18.78085938 25.28714844 18.56171875 24.57429688 18.3359375 23.83984375 C15.33834652 14.78614418 12.25310607 9.43748599 3.625 5.0625 C2.09069991 4.35871338 0.55137135 3.66531143 -1 3 C-0.67 2.01 -0.34 1.02 0 0 Z " fill="#A1A2A1" transform="translate(83,15)"/>
<path d="M0 0 C0 3.63 0 7.26 0 11 C1.32 11.66 2.64 12.32 4 13 C6.75 14.9375 6.75 14.9375 9 17 C9 17.99 9 18.98 9 20 C5.78548731 21.60725635 2.56387464 21.05748185 -1 21 C-3.7376287 16.32950485 -4.33996234 13.01200281 -4.1875 7.625 C-4.16042969 6.37976563 -4.13335938 5.13453125 -4.10546875 3.8515625 C-4.07066406 2.91054687 -4.03585938 1.96953125 -4 1 C-2 0 -2 0 0 0 Z " fill="#BABBBA" transform="translate(4,74)"/>
<path d="M0 0 C0 3 0 3 -2.6328125 5.85546875 C-3.79127358 6.971987 -4.95568804 8.08235086 -6.125 9.1875 C-11.98146644 14.87512853 -16.83583154 20.6317451 -21.25 27.5 C-22.11625 28.7375 -22.11625 28.7375 -23 30 C-23.66 30 -24.32 30 -25 30 C-24.67 28.35 -24.34 26.7 -24 25 C-24.99 24.67 -25.98 24.34 -27 24 C-26.505 22.515 -26.505 22.515 -26 21 C-25.26394531 21.10183594 -24.52789062 21.20367187 -23.76953125 21.30859375 C-20.83524248 21.26604977 -20.83524248 21.26604977 -18.82421875 18.91015625 C-18.11910156 17.97042969 -17.41398437 17.03070313 -16.6875 16.0625 C-15.91535156 15.06734375 -15.14320312 14.0721875 -14.34765625 13.046875 C-13.57292969 12.04140625 -12.79820313 11.0359375 -12 10 C-10.56122834 8.25452311 -9.10449685 6.52359396 -7.625 4.8125 C-6.99851562 4.07644531 -6.37203125 3.34039063 -5.7265625 2.58203125 C-4 1 -4 1 -1 1 C-0.67 0.67 -0.34 0.34 0 0 Z " fill="#959696" transform="translate(74,18)"/>
<path d="M0 0 C0 0.99 0 1.98 0 3 C-7.77136222 6.77704916 -15.72994265 9.17536559 -24.0625 11.375 C-25.08609619 11.64973145 -26.10969238 11.92446289 -27.16430664 12.20751953 C-28.13231201 12.45614746 -29.10031738 12.70477539 -30.09765625 12.9609375 C-30.96914307 13.18571777 -31.84062988 13.41049805 -32.73852539 13.64208984 C-35 14 -35 14 -38 13 C-37.34 12.01 -36.68 11.02 -36 10 C-33.375 9.8125 -33.375 9.8125 -31 10 C-31 9.34 -31 8.68 -31 8 C-30.45174561 7.89977539 -29.90349121 7.79955078 -29.33862305 7.69628906 C-14.36394439 4.95359762 -14.36394439 4.95359762 0 0 Z " fill="#B1B3B2" transform="translate(45,55)"/>
<path d="M0 0 C0.99 0.33 1.98 0.66 3 1 C3.33 2.98 3.66 4.96 4 7 C4.66 7 5.32 7 6 7 C6.33 5.02 6.66 3.04 7 1 C7.99 0.67 8.98 0.34 10 0 C10.99 1.98 11.98 3.96 13 6 C13.66 4.02 14.32 2.04 15 0 C15.99 0 16.98 0 18 0 C17.01 3.63 16.02 7.26 15 11 C13.68 11.33 12.36 11.66 11 12 C10.34 10.02 9.68 8.04 9 6 C8.01 7.98 7.02 9.96 6 12 C5.01 12 4.02 12 3 12 C2.49440092 10.56445975 1.9957251 9.1264798 1.5 7.6875 C1.2215625 6.88699219 0.943125 6.08648437 0.65625 5.26171875 C0 3 0 3 0 0 Z " fill="#FFFFFF" transform="translate(376,57)"/>
<path d="M0 0 C0.33 0.99 0.66 1.98 1 3 C-0.8871875 2.9071875 -0.8871875 2.9071875 -2.8125 2.8125 C-5.44082181 2.82648044 -6.72893184 2.85214464 -9.0625 4.125 C-10.48159947 6.96319894 -9.78006606 9.00974676 -9 12 C-7.88741409 13.32745166 -7.88741409 13.32745166 -5.0625 13.25 C-4.051875 13.1675 -3.04125 13.085 -2 13 C-1.34 12.01 -0.68 11.02 0 10 C-0.99 10 -1.98 10 -3 10 C-3 9.34 -3 8.68 -3 8 C-1.35 8 0.3 8 2 8 C2 10.64 2 13.28 2 16 C-5.98524554 17.44395508 -5.98524554 17.44395508 -10 15.6875 C-12.79826608 13.326463 -12.96333008 12.38870119 -13.3125 8.6875 C-13 5 -13 5 -11.5625 2.0625 C-7.85142217 -0.92446508 -4.59138561 -0.44147939 0 0 Z " fill="#FF7E00" transform="translate(371,77)"/>
<path d="M0 0 C4 0 4 0 6.875 0.5625 C10.02620207 1.16590737 10.02620207 1.16590737 13.25 0.4375 C14.1575 0.293125 15.065 0.14875 16 0 C18 2 18 2 18.1953125 4.3828125 C18.17210937 5.28773437 18.14890625 6.19265625 18.125 7.125 C18.10695313 8.03507812 18.08890625 8.94515625 18.0703125 9.8828125 C18.04710937 10.58148438 18.02390625 11.28015625 18 12 C17.34 12 16.68 12 16 12 C15.67 9.36 15.34 6.72 15 4 C13.68 3.67 12.36 3.34 11 3 C10.67 5.97 10.34 8.94 10 12 C9.34 12 8.68 12 8 12 C7.67 9.03 7.34 6.06 7 3 C6.01 3.33 5.02 3.66 4 4 C3.19787372 5.87387216 3.19787372 5.87387216 2.8125 8.0625 C2.65394531 8.79597656 2.49539063 9.52945313 2.33203125 10.28515625 C2.22246094 10.85105469 2.11289062 11.41695312 2 12 C1.34 12 0.68 12 0 12 C0 8.04 0 4.08 0 0 Z " fill="#FFFFFF" transform="translate(535,33)"/>
<path d="M0 0 C0.680625 0.33 1.36125 0.66 2.0625 1 C5.50840238 2.17307315 8.38397422 2.14180493 12 2 C9 4 9 4 7 5 C9.0140476 8.0210714 10.63279613 9.60667426 14 11 C13.34 11 12.68 11 12 11 C12.7425 12.175625 12.7425 12.175625 13.5 13.375 C15 16 15 16 15 18 C14.01 18 13.02 18 12 18 C11.67 18.99 11.34 19.98 11 21 C10.731875 20.4225 10.46375 19.845 10.1875 19.25 C9.0599314 16.97072523 9.0599314 16.97072523 7.5 15 C6.04016472 13.05355296 5.05860059 11.18336372 4 9 C2.47396404 6.32943707 1.17877079 4.17877079 -1 2 C-0.67 1.34 -0.34 0.68 0 0 Z " fill="#7F8180" transform="translate(48,55)"/>
<path d="M0 0 C0.66 0.99 1.32 1.98 2 3 C1.32904297 3.78310547 1.32904297 3.78310547 0.64453125 4.58203125 C-6.42867186 13.19354293 -10.39680288 21.96904668 -12 33 C-12.99 33 -13.98 33 -15 33 C-14.33294666 19.65893321 -8.19409283 10.06855851 0 0 Z " fill="#6C6E6D" transform="translate(26,32)"/>
<path d="M0 0 C0.99 0 1.98 0 3 0 C3.33 2.64 3.66 5.28 4 8 C4.99 6.68 5.98 5.36 7 4 C7.99 4.33 8.98 4.66 10 5 C9.01 6.32 8.02 7.64 7 9 C7.309375 9.598125 7.61875 10.19625 7.9375 10.8125 C9 13 9 13 10 16 C8.125 15.6875 8.125 15.6875 6 15 C5.34 14.01 4.68 13.02 4 12 C3.67 13.32 3.34 14.64 3 16 C2.01 16 1.02 16 0 16 C0 10.72 0 5.44 0 0 Z " fill="#FFFFFF" transform="translate(400,29)"/>
<path d="M0 0 C0.66 0 1.32 0 2 0 C2 5.28 2 10.56 2 16 C-5 17 -5 17 -6.9375 16.0625 C-8.71243124 12.61704524 -8.36634038 9.84657396 -8 6 C-5 4 -5 4 -1 4 C-0.67 2.68 -0.34 1.36 0 0 Z M-4 6 C-6.28728734 7.83883881 -6.28728734 7.83883881 -6.125 10.625 C-6.08375 11.40875 -6.0425 12.1925 -6 13 C-4.34385343 13.38218767 -2.67542976 13.71395102 -1 14 C0.29633621 12.93354885 0.29633621 12.93354885 0.0625 10.4375 C0.041875 9.633125 0.02125 8.82875 0 8 C-1.32 7.34 -2.64 6.68 -4 6 Z " fill="#FF7E00" transform="translate(409,77)"/>
<path d="M0 0 C3.4375 0.8125 3.4375 0.8125 5.4375 3.8125 C5.875 6.25 5.875 6.25 5.4375 8.8125 C3.25 11.1875 3.25 11.1875 0.4375 12.8125 C-2.44006134 12.74398663 -3.989777 12.1561338 -6.4375 10.6875 C-7.5625 8.8125 -7.5625 8.8125 -7.4375 5.25 C-6.21869651 0.46184342 -4.88800931 -0.25726365 0 0 Z M-3.625 3.8125 C-4.264375 4.4725 -4.90375 5.1325 -5.5625 5.8125 C-4.9025 7.1325 -4.2425 8.4525 -3.5625 9.8125 C-1.9125 9.8125 -0.2625 9.8125 1.4375 9.8125 C2.0975 8.4925 2.7575 7.1725 3.4375 5.8125 C2.12549596 4.45817325 0.79118596 3.12516518 -0.5625 1.8125 C-1.92167681 1.69647569 -1.92167681 1.69647569 -3.625 3.8125 Z " fill="#FFFFFF" transform="translate(490.5625,33.1875)"/>
<path d="M0 0 C1.36125 0.37125 1.36125 0.37125 2.75 0.75 C3.08 2.73 3.41 4.71 3.75 6.75 C1.11 6.75 -1.53 6.75 -4.25 6.75 C-3.92 7.41 -3.59 8.07 -3.25 8.75 C-1.27 8.75 0.71 8.75 2.75 8.75 C2.75 9.74 2.75 10.73 2.75 11.75 C0.09002109 12.48888303 -1.78464544 12.85341212 -4.5 12.25 C-6.25 10.75 -6.25 10.75 -7.25 7.375 C-7.25 3.75 -7.25 3.75 -5.6875 1.25 C-3.25 -0.25 -3.25 -0.25 0 0 Z M-4.25 2.75 C-4.25 3.41 -4.25 4.07 -4.25 4.75 C-2.27 4.75 -0.29 4.75 1.75 4.75 C1.09 3.76 0.43 2.77 -0.25 1.75 C-2.3245356 1.6009288 -2.3245356 1.6009288 -4.25 2.75 Z " fill="#FF7E00" transform="translate(420.25,81.25)"/>
<path d="M0 0 C2 2 2 2 2.125 4.625 C2.08375 5.40875 2.0425 6.1925 2 7 C-0.64 7 -3.28 7 -6 7 C-5.67 7.66 -5.34 8.32 -5 9 C-2.69 9 -0.38 9 2 9 C2 9.99 2 10.98 2 12 C-0.6875 12.8125 -0.6875 12.8125 -4 13 C-6.9375 10.9375 -6.9375 10.9375 -9 8 C-9 4.8125 -9 4.8125 -8 2 C-4.77626323 -0.14915785 -3.73296326 -0.38286803 0 0 Z M-4 2 C-4.99 3.485 -4.99 3.485 -6 5 C-4.02 5 -2.04 5 0 5 C0 4.34 0 3.68 0 3 C-1.32 2.67 -2.64 2.34 -4 2 Z " fill="#FF7E00" transform="translate(383,81)"/>
<path d="M0 0 C2 2 2 2 2.125 4.625 C2.08375 5.40875 2.0425 6.1925 2 7 C-0.64 7 -3.28 7 -6 7 C-5.67 7.66 -5.34 8.32 -5 9 C-2.69 9 -0.38 9 2 9 C2 9.99 2 10.98 2 12 C-0.6875 12.8125 -0.6875 12.8125 -4 13 C-6.9375 10.9375 -6.9375 10.9375 -9 8 C-9 4.8125 -9 4.8125 -8 2 C-4.77626323 -0.14915785 -3.73296326 -0.38286803 0 0 Z M-4 2 C-4.99 3.485 -4.99 3.485 -6 5 C-4.02 5 -2.04 5 0 5 C0 4.34 0 3.68 0 3 C-1.32 2.67 -2.64 2.34 -4 2 Z " fill="#FFFFFF" transform="translate(403,57)"/>
<path d="M0 0 C0.66 0 1.32 0 2 0 C2 2.31 2 4.62 2 7 C4.27521866 4.83312509 6.15794162 2.54379491 8 0 C8.99 0.33 9.98 0.66 11 1 C10.2575 1.99 9.515 2.98 8.75 4 C7.54636805 5.86943354 7.54636805 5.86943354 7 8 C7.83467372 10.99960868 9.26456009 13.43021398 11 16 C9.1015625 15.65625 9.1015625 15.65625 7 15 C5.375 12.5 5.375 12.5 4 10 C3.34 9.67 2.68 9.34 2 9 C2 11.31 2 13.62 2 16 C1.34 16 0.68 16 0 16 C0 10.72 0 5.44 0 0 Z " fill="#FFFFFF" transform="translate(435,29)"/>
<path d="M0 0 C1.8125 1.8125 1.8125 1.8125 3 4 C3 4.99 3 5.98 3 7 C0.36 7.33 -2.28 7.66 -5 8 C-5 8.66 -5 9.32 -5 10 C-1.535 9.505 -1.535 9.505 2 9 C2 9.99 2 10.98 2 12 C-3.25490196 13.31372549 -3.25490196 13.31372549 -6.375 12 C-8 10 -8 10 -8.4375 6.5 C-8 3 -8 3 -6.8125 1.0625 C-4.31219126 -0.40319823 -2.84869344 -0.49852135 0 0 Z M-4 2 C-4.99 3.485 -4.99 3.485 -6 5 C-4.02 5 -2.04 5 0 5 C-0.33 4.01 -0.66 3.02 -1 2 C-1.99 2 -2.98 2 -4 2 Z " fill="#FF7E00" transform="translate(474,81)"/>
<path d="M0 0 C1.875 1.0625 1.875 1.0625 3 3 C3.4375 6.5 3.4375 6.5 3 10 C1.375 12 1.375 12 -1 13 C-4.67293796 12.77962372 -6.36966546 12.63033454 -9 10 C-9.55021834 3.94759825 -9.55021834 3.94759825 -7.875 1.0625 C-5.11019567 -0.50422245 -3.11811483 -0.38976435 0 0 Z M-7 4 C-6.67 5.65 -6.34 7.3 -6 9 C-3.60280568 9.67958603 -3.60280568 9.67958603 -1 10 C-0.34 9.34 0.32 8.68 1 8 C0.67958603 5.39719432 0.67958603 5.39719432 0 3 C-3.48581856 1.7979936 -3.67992344 1.78661563 -7 4 Z " fill="#FF7E00" transform="translate(396,81)"/>
<path d="M0 0 C1.875 1.0625 1.875 1.0625 3 3 C3.4375 6.5 3.4375 6.5 3 10 C1.375 12 1.375 12 -1 13 C-4.67293796 12.77962372 -6.36966546 12.63033454 -9 10 C-9.55021834 3.94759825 -9.55021834 3.94759825 -7.875 1.0625 C-5.11019567 -0.50422245 -3.11811483 -0.38976435 0 0 Z M-7 4 C-6.67 5.65 -6.34 7.3 -6 9 C-3.60280568 9.67958603 -3.60280568 9.67958603 -1 10 C-0.34 9.34 0.32 8.68 1 8 C0.67958603 5.39719432 0.67958603 5.39719432 0 3 C-3.48581856 1.7979936 -3.67992344 1.78661563 -7 4 Z " fill="#FFFFFF" transform="translate(530,57)"/>
<path d="M0 0 C1.875 1.0625 1.875 1.0625 3 3 C3.4375 6.5 3.4375 6.5 3 10 C1.375 12 1.375 12 -1 13 C-4.67293796 12.77962372 -6.36966546 12.63033454 -9 10 C-9.55021834 3.94759825 -9.55021834 3.94759825 -7.875 1.0625 C-5.11019567 -0.50422245 -3.11811483 -0.38976435 0 0 Z M-7 4 C-6.67 5.65 -6.34 7.3 -6 9 C-3.60280568 9.67958603 -3.60280568 9.67958603 -1 10 C-0.34 9.34 0.32 8.68 1 8 C0.67958603 5.39719432 0.67958603 5.39719432 0 3 C-3.48581856 1.7979936 -3.67992344 1.78661563 -7 4 Z " fill="#FFFFFF" transform="translate(456,33)"/>
<path d="M0 0 C1.8125 1.8125 1.8125 1.8125 3 4 C3 4.99 3 5.98 3 7 C0.36 7.33 -2.28 7.66 -5 8 C-5 8.66 -5 9.32 -5 10 C-1.535 9.505 -1.535 9.505 2 9 C2 9.99 2 10.98 2 12 C-3.25490196 13.31372549 -3.25490196 13.31372549 -6.375 12 C-8 10 -8 10 -8.4375 6.5 C-8 3 -8 3 -6.8125 1.0625 C-4.31219126 -0.40319823 -2.84869344 -0.49852135 0 0 Z M-4 2 C-4.99 3.485 -4.99 3.485 -6 5 C-4.02 5 -2.04 5 0 5 C-0.33 4.01 -0.66 3.02 -1 2 C-1.99 2 -2.98 2 -4 2 Z " fill="#FFFFFF" transform="translate(424,33)"/>
<path d="M0 0 C1.98187369 2.31218598 2.02234293 3.54196984 1.875 6.5625 C0.77628987 9.6231925 -0.07629666 10.57765784 -3 12 C-6.125 11.875 -6.125 11.875 -9 11 C-11.31361802 7.52957297 -11.51020728 6.08165827 -11 2 C-7.83738265 -1.92164552 -4.56067115 -1.2668531 0 0 Z M-6 1 C-7.64555699 2.22809091 -7.64555699 2.22809091 -9 4 C-8.74853421 6.13745922 -8.54074221 7.45925779 -7 9 C-4.5 9.16666667 -4.5 9.16666667 -2 9 C-0.70366379 7.93354885 -0.70366379 7.93354885 -0.9375 5.4375 C-0.958125 4.633125 -0.97875 3.82875 -1 3 C-3.475 2.01 -3.475 2.01 -6 1 Z " fill="#FFFFFF" transform="translate(382,34)"/>
<path d="M0 0 C2 2 2 2 2.1953125 4.3828125 C2.17210937 5.28773437 2.14890625 6.19265625 2.125 7.125 C2.10695313 8.03507812 2.08890625 8.94515625 2.0703125 9.8828125 C2.04710937 10.58148438 2.02390625 11.28015625 2 12 C-4.625 13.25 -4.625 13.25 -8 11 C-7.67 9.35 -7.34 7.7 -7 6 C-5.02 5.34 -3.04 4.68 -1 4 C-3.94729537 2.84188612 -3.94729537 2.84188612 -7 3 C-7 2.34 -7 1.68 -7 1 C-4.48718205 -0.25640898 -2.78302919 -0.20872719 0 0 Z M-5 7 C-5 7.99 -5 8.98 -5 10 C-4.01 10 -3.02 10 -2 10 C-1.67 9.01 -1.34 8.02 -1 7 C-2.32 7 -3.64 7 -5 7 Z " fill="#FFFFFF" transform="translate(476,57)"/>
<path d="M0 0 C2.3431213 0.25561323 4.67843403 0.59270772 7 1 C8.20272819 3.40545638 8.10071472 4.94996953 8.0625 7.625 C8.05347656 8.44226563 8.04445313 9.25953125 8.03515625 10.1015625 C8.02355469 10.72804688 8.01195312 11.35453125 8 12 C1.375 13.25 1.375 13.25 -2 11 C-1.125 6.125 -1.125 6.125 0 5 C1.66617115 4.95936168 3.33388095 4.957279 5 5 C4.67 4.34 4.34 3.68 4 3 C2.35 3 0.7 3 -1 3 C-0.67 2.01 -0.34 1.02 0 0 Z M1 7 C0.67 7.99 0.34 8.98 0 10 C0.99 10.33 1.98 10.66 3 11 C3.66 9.68 4.32 8.36 5 7 C3.68 7 2.36 7 1 7 Z " fill="#FFFFFF" transform="translate(429,57)"/>
<path d="M0 0 C6.8359375 -0.29296875 6.8359375 -0.29296875 9 0 C11 3 11 3 10.6875 6.125 C10 9 10 9 9 10 C6.66702567 10.04092937 4.33294775 10.04241723 2 10 C2 11.98 2 13.96 2 16 C1.34 16 0.68 16 0 16 C0 10.72 0 5.44 0 0 Z M2 2 C2 3.98 2 5.96 2 8 C3.65 8 5.3 8 7 8 C7.66 6.68 8.32 5.36 9 4 C7.16116119 1.71271266 7.16116119 1.71271266 4.375 1.875 C3.199375 1.936875 3.199375 1.936875 2 2 Z " fill="#FFFFFF" transform="translate(359,29)"/>
<path d="M0 0 C3 1 3 1 4.6875 4.0625 C5.120625 5.031875 5.55375 6.00125 6 7 C6.99 4.69 7.98 2.38 9 0 C9.66 0 10.32 0 11 0 C10.54821002 5.72267312 8.43533017 11.39353454 5 16 C2.328125 16.79296875 2.328125 16.79296875 0 17 C0.495 15.515 0.495 15.515 1 14 C1.66 14 2.32 14 3 14 C2.40380045 9.13103697 1.43023178 4.67209049 0 0 Z " fill="#FF7E00" transform="translate(436,81)"/>
<path d="M0 0 C6.8359375 -0.1953125 6.8359375 -0.1953125 9 0 C11 2 11 2 11.1953125 4.3828125 C11.17210937 5.28773437 11.14890625 6.19265625 11.125 7.125 C11.10695313 8.03507812 11.08890625 8.94515625 11.0703125 9.8828125 C11.04710937 10.58148438 11.02390625 11.28015625 11 12 C10.34 12 9.68 12 9 12 C8.8046875 9.94921875 8.609375 7.8984375 8.4140625 5.84765625 C8.27742187 5.23792969 8.14078125 4.62820312 8 4 C7.34 3.67 6.68 3.34 6 3 C5.01 3.495 5.01 3.495 4 4 C3.53476937 5.89533342 3.53476937 5.89533342 3.375 8.0625 C3.25125 9.361875 3.1275 10.66125 3 12 C2.01 12 1.02 12 0 12 C0 8.04 0 4.08 0 0 Z " fill="#FFFFFF" transform="translate(508,57)"/>
<path d="M0 0 C3 1 3 1 4.6875 4.0625 C5.120625 5.031875 5.55375 6.00125 6 7 C6.99 4.69 7.98 2.38 9 0 C9.66 0 10.32 0 11 0 C10.54821002 5.72267312 8.43533017 11.39353454 5 16 C2.328125 16.79296875 2.328125 16.79296875 0 17 C0.495 15.515 0.495 15.515 1 14 C1.66 14 2.32 14 3 14 C2.40380045 9.13103697 1.43023178 4.67209049 0 0 Z " fill="#FFFFFF" transform="translate(491,57)"/>
<path d="M0 0 C6.8359375 -0.1953125 6.8359375 -0.1953125 9 0 C11 2 11 2 11.1953125 4.3828125 C11.17210937 5.28773437 11.14890625 6.19265625 11.125 7.125 C11.10695313 8.03507812 11.08890625 8.94515625 11.0703125 9.8828125 C11.04710937 10.58148438 11.02390625 11.28015625 11 12 C10.34 12 9.68 12 9 12 C8.8046875 9.94921875 8.609375 7.8984375 8.4140625 5.84765625 C8.27742188 5.23792969 8.14078125 4.62820312 8 4 C7.34 3.67 6.68 3.34 6 3 C5.01 3.495 5.01 3.495 4 4 C3.53476937 5.89533342 3.53476937 5.89533342 3.375 8.0625 C3.25125 9.361875 3.1275 10.66125 3 12 C2.01 12 1.02 12 0 12 C0 8.04 0 4.08 0 0 Z " fill="#FFFFFF" transform="translate(364,57)"/>
<path d="M0 0 C4.83969863 2.00263392 6.89814195 5.34588574 9 10 C9.33 10.99 9.66 11.98 10 13 C9.01 13.495 9.01 13.495 8 14 C7.34 13.67 6.68 13.34 6 13 C6 13.99 6 14.98 6 16 C2.16675232 14.08337616 1.0888707 10.25772503 -0.25 6.375 C-1 3 -1 3 0 0 Z " fill="#919291" transform="translate(60,73)"/>
<path d="M0 0 C1.32 0 2.64 0 4 0 C4.86625 -0.061875 5.7325 -0.12375 6.625 -0.1875 C7.800625 -0.0946875 7.800625 -0.0946875 9 0 C11.13586678 3.20380017 11.23132175 4.01939967 11.125 7.6875 C11.10695313 8.49574219 11.08890625 9.30398437 11.0703125 10.13671875 C11.03550781 11.05904297 11.03550781 11.05904297 11 12 C10.01 12 9.02 12 8 12 C7.67 9.03 7.34 6.06 7 3 C6.01 3.33 5.02 3.66 4 4 C3.19787372 5.87387216 3.19787372 5.87387216 2.8125 8.0625 C2.65394531 8.79597656 2.49539063 9.52945313 2.33203125 10.28515625 C2.22246094 10.85105469 2.11289062 11.41695312 2 12 C1.34 12 0.68 12 0 12 C0 8.04 0 4.08 0 0 Z " fill="#FF7E00" transform="translate(453,81)"/>
<path d="M0 0 C1.32 0 2.64 0 4 0 C4.86625 -0.061875 5.7325 -0.12375 6.625 -0.1875 C7.800625 -0.0946875 7.800625 -0.0946875 9 0 C11.13586678 3.20380017 11.23132175 4.01939967 11.125 7.6875 C11.10695313 8.49574219 11.08890625 9.30398437 11.0703125 10.13671875 C11.03550781 11.05904297 11.03550781 11.05904297 11 12 C10.01 12 9.02 12 8 12 C7.67 9.03 7.34 6.06 7 3 C6.01 3.33 5.02 3.66 4 4 C3.19787372 5.87387216 3.19787372 5.87387216 2.8125 8.0625 C2.65394531 8.79597656 2.49539063 9.52945313 2.33203125 10.28515625 C2.22246094 10.85105469 2.11289062 11.41695312 2 12 C1.34 12 0.68 12 0 12 C0 8.04 0 4.08 0 0 Z " fill="#FFFFFF" transform="translate(407,57)"/>
<path d="M0 0 C1.98362069 2.91708924 1.9876191 4.12380904 1.625 7.75 C1.41875 8.8225 1.2125 9.895 1 11 C1.66 11.33 2.32 11.66 3 12 C1.68 12.33 0.36 12.66 -1 13 C-1 11.35 -1 9.7 -1 8 C-1.99 8.33 -2.98 8.66 -4 9 C-4.33 9.99 -4.66 10.98 -5 12 C-5.33 10.68 -5.66 9.36 -6 8 C-6.99 9.32 -7.98 10.64 -9 12 C-9.66 11.67 -10.32 11.34 -11 11 C-10.690625 10.236875 -10.38125 9.47375 -10.0625 8.6875 C-9.32106407 6.81210323 -8.63771783 4.91315348 -8 3 C-5 2 -5 2 -1 2 C-0.67 1.34 -0.34 0.68 0 0 Z " fill="#787A79" transform="translate(38,30)"/>
<path d="M0 0 C-0.99 0.33 -1.98 0.66 -3 1 C-3 1.99 -3 2.98 -3 4 C-3.99 4 -4.98 4 -6 4 C-6 4.99 -6 5.98 -6 7 C-12.4 10.07692308 -12.4 10.07692308 -15.4375 9.6875 C-15.953125 9.460625 -16.46875 9.23375 -17 9 C-14.51963665 4.71573603 -12.79586839 2.11915664 -8.125 0.3125 C-7.10792969 -0.09548828 -7.10792969 -0.09548828 -6.0703125 -0.51171875 C-3.68892218 -1.07336741 -2.29569809 -0.76694846 0 0 Z " fill="#989998" transform="translate(73,1)"/>
<path d="M0 0 C2.97 0 5.94 0 9 0 C8.5206753 4.31392226 7.2542015 6.16569547 4 9 C6.97 9.495 6.97 9.495 10 10 C10 10.66 10 11.32 10 12 C6.37 12 2.74 12 -1 12 C0.52475697 8.95048605 1.92885326 6.63600494 4 4 C2.68 3.67 1.36 3.34 0 3 C0 2.01 0 1.02 0 0 Z " fill="#FF7E00" transform="translate(426,81)"/>
<path d="M0 0 C0.66 0 1.32 0 2 0 C2.33 2.97 2.66 5.94 3 9 C4.32 9.33 5.64 9.66 7 10 C7.33 6.7 7.66 3.4 8 0 C8.66 0 9.32 0 10 0 C10 3.96 10 7.92 10 12 C3.375 13.25 3.375 13.25 0 11 C-0.29296875 8.3984375 -0.29296875 8.3984375 -0.1875 5.375 C-0.16042969 4.37210938 -0.13335938 3.36921875 -0.10546875 2.3359375 C-0.07066406 1.56507812 -0.03585937 0.79421875 0 0 Z " fill="#FFFFFF" transform="translate(522,33)"/>
<path d="M0 0 C-0.33 0.99 -0.66 1.98 -1 3 C-1.61875 2.814375 -2.2375 2.62875 -2.875 2.4375 C-5.04160178 1.76313824 -5.04160178 1.76313824 -7 3 C-7 4.65 -7 6.3 -7 8 C-4.69 8 -2.38 8 0 8 C0 8.99 0 9.98 0 11 C-2.6875 11.8125 -2.6875 11.8125 -6 12 C-8.9375 9.9375 -8.9375 9.9375 -11 7 C-11 3.8125 -11 3.8125 -10 1 C-6.1496895 -1.56687367 -4.41430237 -0.83288724 0 0 Z " fill="#FFFFFF" transform="translate(515,34)"/>
<path d="M0 0 C0.78375 0.04125 1.5675 0.0825 2.375 0.125 C2.705 1.115 3.035 2.105 3.375 3.125 C1.725 3.455 0.075 3.785 -1.625 4.125 C0.355 5.445 2.335 6.765 4.375 8.125 C4.045 9.445 3.715 10.765 3.375 12.125 C0.08803767 12.92453138 -1.33523192 13.22158936 -4.625 12.125 C-4.625 11.135 -4.625 10.145 -4.625 9.125 C-1.655 9.62 -1.655 9.62 1.375 10.125 C1.375 9.465 1.375 8.805 1.375 8.125 C0.570625 7.8775 -0.23375 7.63 -1.0625 7.375 C-3.625 6.125 -3.625 6.125 -4.5625 4.125 C-4.583125 3.465 -4.60375 2.805 -4.625 2.125 C-2.625 0.125 -2.625 0.125 0 0 Z " fill="#FFFFFF" transform="translate(394.625,32.875)"/>
<path d="M0 0 C1 2 1 2 0.44140625 4.1640625 C0.15136719 4.97617187 -0.13867188 5.78828125 -0.4375 6.625 C-0.72496094 7.44226562 -1.01242188 8.25953125 -1.30859375 9.1015625 C-1.65083984 10.04128906 -1.65083984 10.04128906 -2 11 C-0.68 11.33 0.64 11.66 2 12 C1.236875 12.2475 0.47375 12.495 -0.3125 12.75 C-3.26180029 14.12176758 -4.17431019 15.3918717 -6 18 C-6.66 18 -7.32 18 -8 18 C-7.83837003 10.72665157 -4.04781684 5.84449794 0 0 Z " fill="#A4A5A5" transform="translate(25,39)"/>
<path d="M0 0 C0 0.66 0 1.32 0 2 C-1.65 2 -3.3 2 -5 2 C-2.525 3.98 -2.525 3.98 0 6 C-0.33 7.65 -0.66 9.3 -1 11 C-3.3125 11.6875 -3.3125 11.6875 -6 12 C-7.8125 10.5625 -7.8125 10.5625 -9 9 C-7 8 -7 8 -3 8 C-3.825 7.608125 -4.65 7.21625 -5.5 6.8125 C-6.325 6.214375 -7.15 5.61625 -8 5 C-8.3125 2.3125 -8.3125 2.3125 -8 0 C-5.13822943 -1.43088528 -3.06624227 -0.59991697 0 0 Z " fill="#FFFFFF" transform="translate(482,34)"/>
<path d="M0 0 C6.93359375 -0.09765625 6.93359375 -0.09765625 9 0 C10 1 10 1 10.09765625 3.50390625 C10.08605469 4.51324219 10.07445312 5.52257813 10.0625 6.5625 C10.05347656 7.57441406 10.04445313 8.58632813 10.03515625 9.62890625 C10.02355469 10.41136719 10.01195312 11.19382812 10 12 C9.34 12 8.68 12 8 12 C7.67 9.03 7.34 6.06 7 3 C5.68 3 4.36 3 3 3 C2.67 5.97 2.34 8.94 2 12 C1.34 12 0.68 12 0 12 C0 8.04 0 4.08 0 0 Z " fill="#FFFFFF" transform="translate(461,33)"/>
<path d="M0 0 C-0.33 0.99 -0.66 1.98 -1 3 C-1.61875 2.814375 -2.2375 2.62875 -2.875 2.4375 C-5.04160178 1.76313824 -5.04160178 1.76313824 -7 3 C-7 4.98 -7 6.96 -7 9 C-3.535 8.505 -3.535 8.505 0 8 C0 8.99 0 9.98 0 11 C-5.25490196 12.31372549 -5.25490196 12.31372549 -8.375 11 C-10 9 -10 9 -10.4375 5.5 C-10 2 -10 2 -8.9375 0 C-5.86664787 -1.58495594 -3.27813225 -0.68036707 0 0 Z " fill="#FFFFFF" transform="translate(490,58)"/>
<path d="M0 0 C2.90881885 1.33908181 5.1745955 2.88854475 7.625 4.9375 C12.05177567 8.35363443 16.60796215 9.7403846 22 11 C22 11.33 22 11.66 22 12 C21.37351562 11.91621094 20.74703125 11.83242187 20.1015625 11.74609375 C19.28429687 11.64425781 18.46703125 11.54242188 17.625 11.4375 C16.81289063 11.33308594 16.00078125 11.22867188 15.1640625 11.12109375 C12.95100814 10.81762672 12.95100814 10.81762672 11 12 C9.72689688 11.06558465 8.456612 10.12732889 7.1875 9.1875 C6.47980469 8.66542969 5.77210937 8.14335938 5.04296875 7.60546875 C3.18764368 6.14745995 1.50929466 4.81401031 0 3 C0 2.01 0 1.02 0 0 Z " fill="#888989" transform="translate(19,96)"/>
<path d="M0 0 C0.66 0.33 1.32 0.66 2 1 C0.45463516 4.30708075 -1.42794001 7.24726899 -3.5 10.25 C-4.1084375 11.14203125 -4.716875 12.0340625 -5.34375 12.953125 C-6.16359375 13.96632813 -6.16359375 13.96632813 -7 15 C-7.66 15 -8.32 15 -9 15 C-8.67 13.35 -8.34 11.7 -8 10 C-8.99 9.67 -9.98 9.34 -11 9 C-10.67 8.01 -10.34 7.02 -10 6 C-9.278125 6.12375 -8.55625 6.2475 -7.8125 6.375 C-4.54986264 5.93998169 -4.1958004 5.44438849 -2.1875 3 C-1.1046875 1.515 -1.1046875 1.515 0 0 Z " fill="#6C6E6D" transform="translate(58,33)"/>
<path d="M0 0 C0.99 0 1.98 0 3 0 C3.05398987 2.27057377 3.09278742 4.54151288 3.125 6.8125 C3.14820313 8.07707031 3.17140625 9.34164062 3.1953125 10.64453125 C3 14 3 14 1 17 C-0.32 17 -1.64 17 -3 17 C-3 16.34 -3 15.68 -3 15 C-2.34 14.67 -1.68 14.34 -1 14 C-0.52998967 10.72444392 -0.52998967 10.72444392 -0.375 6.9375 C-0.30023438 5.64714844 -0.22546875 4.35679688 -0.1484375 3.02734375 C-0.09945313 2.02832031 -0.05046875 1.02929688 0 0 Z " fill="#FF7E00" transform="translate(448,81)"/>
<path d="M0 0 C0.99 0 1.98 0 3 0 C3.05398987 2.27057377 3.09278742 4.54151288 3.125 6.8125 C3.14820313 8.07707031 3.17140625 9.34164062 3.1953125 10.64453125 C3 14 3 14 1 17 C-0.32 17 -1.64 17 -3 17 C-3 16.34 -3 15.68 -3 15 C-2.34 14.67 -1.68 14.34 -1 14 C-0.52998967 10.72444392 -0.52998967 10.72444392 -0.375 6.9375 C-0.30023438 5.64714844 -0.22546875 4.35679688 -0.1484375 3.02734375 C-0.09945313 2.02832031 -0.05046875 1.02929688 0 0 Z " fill="#FFFFFF" transform="translate(503,57)"/>
<path d="M0 0 C0.66 0.33 1.32 0.66 2 1 C2 1.66 2 2.32 2 3 C2.66 3.33 3.32 3.66 4 4 C3.01 5.485 3.01 5.485 2 7 C1.34 7 0.68 7 0 7 C-0.33 7.99 -0.66 8.98 -1 10 C-6.75 11.125 -6.75 11.125 -9 10 C-9 7.69 -9 5.38 -9 3 C-8.01 3.495 -8.01 3.495 -7 4 C-7 4.66 -7 5.32 -7 6 C-6.34 6 -5.68 6 -5 6 C-5 6.66 -5 7.32 -5 8 C-4.34 8 -3.68 8 -3 8 C-2.690625 6.865625 -2.38125 5.73125 -2.0625 4.5625 C-1 1 -1 1 0 0 Z M-1 2 C-1 3.32 -1 4.64 -1 6 C-0.34 5.67 0.32 5.34 1 5 C0.34 4.01 -0.32 3.02 -1 2 Z " fill="#797A7A" transform="translate(68,39)"/>
<path d="M0 0 C1.32 0.99 2.64 1.98 4 3 C-0.455 6.96 -0.455 6.96 -5 11 C-5.99 10.67 -6.98 10.34 -8 10 C-8 7 -8 7 -6.25 5.17578125 C-5.5075 4.56089844 -4.765 3.94601563 -4 3.3125 C-3.2575 2.68988281 -2.515 2.06726563 -1.75 1.42578125 C-1.1725 0.95527344 -0.595 0.48476562 0 0 Z " fill="#828383" transform="translate(85,88)"/>
<path d="M0 0 C0.99 0 1.98 0 3 0 C3.33 5.28 3.66 10.56 4 16 C2.68 15.67 1.36 15.34 0 15 C0 10.05 0 5.1 0 0 Z " fill="#FFFFFF" transform="translate(385,29)"/>
<path d="M0 0 C2.31 0 4.62 0 7 0 C7 0.99 7 1.98 7 3 C6.01 3.33 5.02 3.66 4 4 C3.67 6.64 3.34 9.28 3 12 C2.01 12 1.02 12 0 12 C0 8.04 0 4.08 0 0 Z " fill="#FFFFFF" transform="translate(497,33)"/>
<path d="M0 0 C0.66 0 1.32 0 2 0 C2 0.99 2 1.98 2 3 C2.99 3 3.98 3 5 3 C5 3.66 5 4.32 5 5 C4.01 5 3.02 5 2 5 C2.25561323 7.3431213 2.59270772 9.67843403 3 12 C3.66 12.33 4.32 12.66 5 13 C5 13.66 5 14.32 5 15 C3.35 14.67 1.7 14.34 0 14 C0 11.03 0 8.06 0 5 C-0.66 5 -1.32 5 -2 5 C-2 4.34 -2 3.68 -2 3 C-1.34 3 -0.68 3 0 3 C0 2.01 0 1.02 0 0 Z " fill="#FFFFFF" transform="translate(421,54)"/>
<path d="M0 0 C0.99 0.33 1.98 0.66 3 1 C0.40089764 3.70739829 -2.33159684 6.24609498 -5.125 8.75 C-5.80820312 9.36359375 -6.49140625 9.9771875 -7.1953125 10.609375 C-9 12 -9 12 -11 12 C-10.66179961 9.00354452 -9.99645313 7.99645948 -7.8203125 5.82421875 C-6.93085938 5.11910156 -6.04140625 4.41398437 -5.125 3.6875 C-4.24070312 2.96949219 -3.35640625 2.25148438 -2.4453125 1.51171875 C-1.63835938 1.01285156 -0.83140625 0.51398437 0 0 Z " fill="#808180" transform="translate(38,22)"/>
<path d="M0 0 C2 1 2 1 3.625 4.625 C5.76054921 11.24627569 5.24434707 18.13113225 5 25 C4.67 25 4.34 25 4 25 C3.93941406 24.02417969 3.87882812 23.04835938 3.81640625 22.04296875 C3.73261719 20.77066406 3.64882812 19.49835937 3.5625 18.1875 C3.48128906 16.92292969 3.40007812 15.65835938 3.31640625 14.35546875 C3.12815453 11.00818107 3.12815453 11.00818107 2 8 C1.34 8.99 0.68 9.98 0 11 C-1.28571429 3.57142857 -1.28571429 3.57142857 0 0 Z " fill="#717272" transform="translate(102,30)"/>
<path d="M0 0 C0.66 0 1.32 0 2 0 C2 5.28 2 10.56 2 16 C0.35 16.33 -1.3 16.66 -3 17 C-3 16.34 -3 15.68 -3 15 C-2.34 14.67 -1.68 14.34 -1 14 C-0.52998967 10.72444392 -0.52998967 10.72444392 -0.375 6.9375 C-0.30023437 5.64714844 -0.22546875 4.35679688 -0.1484375 3.02734375 C-0.09945312 2.02832031 -0.05046875 1.02929688 0 0 Z " fill="#FFFFFF" transform="translate(517,33)"/>
<path d="M0 0 C0 0.99 0 1.98 0 3 C-1.93232821 3.86580287 -3.87107194 4.71729941 -5.8125 5.5625 C-6.89144531 6.03816406 -7.97039063 6.51382813 -9.08203125 7.00390625 C-12 8 -12 8 -15 7 C-15 6.34 -15 5.68 -15 5 C-10.05 3.35 -5.1 1.7 0 0 Z " fill="#7E7F7F" transform="translate(45,55)"/>
<path d="M0 0 C0.66 0 1.32 0 2 0 C1.29445932 3.66881155 -0.27735506 6.70450534 -2 10 C-2.99 10 -3.98 10 -5 10 C-5.33 7.69 -5.66 5.38 -6 3 C-4.68 2.67 -3.36 2.34 -2 2 C-1.67 2.66 -1.34 3.32 -1 4 C-0.67 2.68 -0.34 1.36 0 0 Z " fill="#9B9C9B" transform="translate(89,47)"/>
<path d="M0 0 C1.32 0.66 2.64 1.32 4 2 C3.34 2 2.68 2 2 2 C2.495 2.78375 2.99 3.5675 3.5 4.375 C5 7 5 7 5 9 C4.01 9 3.02 9 2 9 C1.67 9.99 1.34 10.98 1 12 C-0.20628008 9.66785852 -1.1654738 7.50357861 -2 5 C-1.34 4.67 -0.68 4.34 0 4 C-0.33 3.01 -0.66 2.02 -1 1 C-0.67 0.67 -0.34 0.34 0 0 Z " fill="#626363" transform="translate(58,64)"/>
<path d="M0 0 C0.33 0 0.66 0 1 0 C0.50769231 6.4 0.50769231 6.4 -2.0625 9.4375 C-3.0215625 10.2109375 -3.0215625 10.2109375 -4 11 C-4.66 10.67 -5.32 10.34 -6 10 C-5.01 7.36 -4.02 4.72 -3 2 C-2.01 2 -1.02 2 0 2 C0 1.34 0 0.68 0 0 Z " fill="#B5B6B6" transform="translate(99,70)"/>
<path d="M0 0 C0 0.99 0 1.98 0 3 C-3.63 3 -7.26 3 -11 3 C-10.67 2.01 -10.34 1.02 -10 0 C-6.30581799 -1.231394 -3.7943739 -0.64432764 0 0 Z " fill="#D3D3D3" transform="translate(80,1)"/>
<path d="M0 0 C0.99 0 1.98 0 3 0 C3 3.96 3 7.92 3 12 C2.01 12 1.02 12 0 12 C0 8.04 0 4.08 0 0 Z " fill="#FFFFFF" transform="translate(411,33)"/>
<path d="M0 0 C1.21386936 3.64160808 0.6674695 4.33165469 -0.9375 7.6875 C-1.31777344 8.49574219 -1.69804688 9.30398437 -2.08984375 10.13671875 C-2.39019531 10.75160156 -2.69054687 11.36648437 -3 12 C-4.32 11.67 -5.64 11.34 -7 11 C-6.01 8.03 -5.02 5.06 -4 2 C-3.01 3.485 -3.01 3.485 -2 5 C-1.34 3.35 -0.68 1.7 0 0 Z " fill="#787979" transform="translate(104,61)"/>
<path d="M0 0 C3.53586014 3.17320782 5.58578031 5.16743695 6 10 C5.01 10.33 4.02 10.66 3 11 C0.29417212 7.16674383 -0.32613618 4.67461851 0 0 Z " fill="#A0A1A1" transform="translate(97,23)"/>
<path d="M0 0 C2.86724686 0.57344937 3.8614515 0.8614515 6 3 C5.625 6.625 5.625 6.625 5 10 C4.67 10 4.34 10 4 10 C3.67 8.35 3.34 6.7 3 5 C2.34 6.65 1.68 8.3 1 10 C0.855625 9.38125 0.71125 8.7625 0.5625 8.125 C0.06847775 5.96741678 0.06847775 5.96741678 -1 4 C-0.01 4 0.98 4 2 4 C2 3.01 2 2.02 2 1 C1.34 0.67 0.68 0.34 0 0 Z " fill="#929392" transform="translate(78,0)"/>
<path d="M0 0 C0.66 0 1.32 0 2 0 C2 5.28 2 10.56 2 16 C1.34 16 0.68 16 0 16 C0 10.72 0 5.44 0 0 Z " fill="#FFFFFF" transform="translate(359,53)"/>
<path d="M0 0 C1.98362069 2.91708924 1.9876191 4.12380904 1.625 7.75 C1.41875 8.8225 1.2125 9.895 1 11 C1.66 11.33 2.32 11.66 3 12 C1.68 12.33 0.36 12.66 -1 13 C-0.67 11.02 -0.34 9.04 0 7 C-0.99 6.67 -1.98 6.34 -3 6 C-2.01 4.02 -1.02 2.04 0 0 Z " fill="#878988" transform="translate(38,30)"/>
<path d="M0 0 C4.62 0 9.24 0 14 0 C13.34 1.32 12.68 2.64 12 4 C11.67 3.34 11.34 2.68 11 2 C7.04 2 3.08 2 -1 2 C-0.67 1.34 -0.34 0.68 0 0 Z " fill="#A0A2A1" transform="translate(62,13)"/>
<path d="M0 0 C0 3 0 3 -1.53125 4.60546875 C-2.1809375 5.12753906 -2.830625 5.64960938 -3.5 6.1875 C-4.1496875 6.71730469 -4.799375 7.24710938 -5.46875 7.79296875 C-5.9740625 8.19128906 -6.479375 8.58960938 -7 9 C-7.33 7.68 -7.66 6.36 -8 5 C-3.25 1 -3.25 1 -1 1 C-0.67 0.67 -0.34 0.34 0 0 Z " fill="#808181" transform="translate(74,18)"/>
<path d="M0 0 C0.66 0.33 1.32 0.66 2 1 C0.83242263 4.32310483 -0.14948857 6.83361132 -3 9 C-3.99 9 -4.98 9 -6 9 C-4.68775452 5.06326356 -3.08089673 2.77280706 0 0 Z " fill="#929393" transform="translate(7,66)"/>
<path d="M0 0 C0.90492187 0.02320313 1.80984375 0.04640625 2.7421875 0.0703125 C4.10730469 0.09738281 4.10730469 0.09738281 5.5 0.125 C6.19867188 0.14820313 6.89734375 0.17140625 7.6171875 0.1953125 C7.2871875 0.8553125 6.9571875 1.5153125 6.6171875 2.1953125 C5.9571875 2.1953125 5.2971875 2.1953125 4.6171875 2.1953125 C4.2871875 3.5153125 3.9571875 4.8353125 3.6171875 6.1953125 C2.6271875 5.8653125 1.6371875 5.5353125 0.6171875 5.1953125 C0.6171875 4.5353125 0.6171875 3.8753125 0.6171875 3.1953125 C-1.0328125 2.8653125 -2.6828125 2.5353125 -4.3828125 2.1953125 C-2.3828125 0.1953125 -2.3828125 0.1953125 0 0 Z " fill="#8B8C8B" transform="translate(72.3828125,32.8046875)"/>
<path d="M0 0 C1.98 0.495 1.98 0.495 4 1 C4.33 2.65 4.66 4.3 5 6 C3.35 6.33 1.7 6.66 0 7 C-1.04449911 3.86650268 -0.93423645 3.01031744 0 0 Z " fill="#B4B5B4" transform="translate(46,58)"/>
<path d="M0 0 C1.9375 0.8125 1.9375 0.8125 4 2 C4.33 2.99 4.66 3.98 5 5 C4.01 5.495 4.01 5.495 3 6 C2.34 5.67 1.68 5.34 1 5 C1 5.99 1 6.98 1 8 C0.34 7.67 -0.32 7.34 -1 7 C-1 3 -1 3 0 0 Z " fill="#7B7C7C" transform="translate(65,81)"/>
<path d="M0 0 C-0.1875 1.8125 -0.1875 1.8125 -1 4 C-3.4375 5.8125 -3.4375 5.8125 -6 7 C-6.66 6.67 -7.32 6.34 -8 6 C-7.34 5.34 -6.68 4.68 -6 4 C-6.99 3.67 -7.98 3.34 -9 3 C-2.25 0 -2.25 0 0 0 Z " fill="#7D7E7E" transform="translate(74,100)"/>
<path d="M0 0 C2.31 0.33 4.62 0.66 7 1 C6.01 3.31 5.02 5.62 4 8 C3.67 6.68 3.34 5.36 3 4 C2.34 4 1.68 4 1 4 C0.67 2.68 0.34 1.36 0 0 Z " fill="#898A8A" transform="translate(84,62)"/>
<path d="M0 0 C-4.82624485 3.84129692 -7.83543524 5.62257767 -14 6 C-11.68143083 4.45428722 -9.49361571 3.20381448 -7 2 C-7 1.34 -7 0.68 -7 0 C-2.25 -1.125 -2.25 -1.125 0 0 Z " fill="#B3B4B4" transform="translate(70,104)"/>
<path d="M0 0 C0.66 0 1.32 0 2 0 C2 1.32 2 2.64 2 4 C2.99 4 3.98 4 5 4 C4.34 5.32 3.68 6.64 3 8 C1.0625 7.1875 1.0625 7.1875 -1 6 C-1.33 5.01 -1.66 4.02 -2 3 C-1.34 2.01 -0.68 1.02 0 0 Z " fill="#666867" transform="translate(78,25)"/>
<path d="M0 0 C2.86697492 1.28519565 4.97607712 2.57129254 7 5 C7 5.66 7 6.32 7 7 C3.76509224 6.44225728 2.02144994 5.62788492 0 3 C0 2.01 0 1.02 0 0 Z " fill="#A2A4A3" transform="translate(19,96)"/>
<path d="M0 0 C0.680625 0.33 1.36125 0.66 2.0625 1 C5.50840238 2.17307315 8.38397422 2.14180493 12 2 C8.68704675 4.2086355 7.77546697 4 4 4 C3.34 4.66 2.68 5.32 2 6 C1.01 4.68 0.02 3.36 -1 2 C-0.67 1.34 -0.34 0.68 0 0 Z " fill="#636564" transform="translate(48,55)"/>
<path d="M0 0 C-1.35468295 4.87685861 -3.71675909 6.48592381 -8 9 C-7.53918323 4.85264908 -4.48412936 0 0 0 Z " fill="#D5D6D6" transform="translate(79,12)"/>
<path d="M0 0 C0.66 0 1.32 0 2 0 C2 0.99 2 1.98 2 3 C2.66 3 3.32 3 4 3 C4 3.99 4 4.98 4 6 C3.34 6 2.68 6 2 6 C2 6.66 2 7.32 2 8 C1.34 8 0.68 8 0 8 C0 5.36 0 2.72 0 0 Z " fill="#9FA1A0" transform="translate(10,70)"/>
<path d="M0 0 C0.66 0.99 1.32 1.98 2 3 C0.35 4.98 -1.3 6.96 -3 9 C-3.66 8.67 -4.32 8.34 -5 8 C-3.62845496 5.04590299 -2.01136276 2.55991624 0 0 Z " fill="#666766" transform="translate(26,32)"/>
<path d="M0 0 C0.66 0.33 1.32 0.66 2 1 C0.68 2.65 -0.64 4.3 -2 6 C-2.99 5.67 -3.98 5.34 -5 5 C-5 4.01 -5 3.02 -5 2 C-2.625 0.9375 -2.625 0.9375 0 0 Z " fill="#ADAEAD" transform="translate(82,93)"/>
<path d="M0 0 C-0.75 7.75 -0.75 7.75 -3 10 C-3 7.03 -3 4.06 -3 1 C-1 0 -1 0 0 0 Z " fill="#D3D3D3" transform="translate(104,58)"/>
<path d="M0 0 C1 2 1 2 0.3125 5.0625 C-1 8 -1 8 -3.125 8.875 C-3.74375 8.91625 -4.3625 8.9575 -5 9 C-3.7508258 5.54074837 -2.32472205 2.85306797 0 0 Z " fill="#939493" transform="translate(25,39)"/>
<path d="M0 0 C0.66 0.33 1.32 0.66 2 1 C0.60667426 4.36720387 -0.9789286 5.9859524 -4 8 C-3.50168276 4.31245243 -2.89932357 2.39509338 0 0 Z " fill="#7F807F" transform="translate(58,33)"/>
<path d="M0 0 C4.95 0.99 4.95 0.99 10 2 C9.34 2.66 8.68 3.32 8 4 C4.375 3.625 4.375 3.625 1 3 C0.67 2.01 0.34 1.02 0 0 Z " fill="#C2C3C3" transform="translate(31,106)"/>
<path d="M0 0 C-0.66 1.65 -1.32 3.3 -2 5 C-2.33 4.34 -2.66 3.68 -3 3 C-3.99 3 -4.98 3 -6 3 C-6.33 2.01 -6.66 1.02 -7 0 C-2.25 -1.125 -2.25 -1.125 0 0 Z " fill="#898A8A" transform="translate(84,74)"/>
<path d="M0 0 C1.875 0.3125 1.875 0.3125 4 1 C6 4 6 4 5.625 6.6875 C5.41875 7.450625 5.2125 8.21375 5 9 C4.01 8.67 3.02 8.34 2 8 C2.04125 7.05125 2.0825 6.1025 2.125 5.125 C2.34973818 1.89755144 2.34973818 1.89755144 0 0 Z " fill="#686A69" transform="translate(91,62)"/>
<path d="M0 0 C2.64 0.33 5.28 0.66 8 1 C4.73454239 2.88391785 1.71888239 3.49287967 -2 4 C-1.34 2.68 -0.68 1.36 0 0 Z " fill="#C7C8C8" transform="translate(9,65)"/>
<path d="M0 0 C1.32 0 2.64 0 4 0 C4 0.99 4 1.98 4 3 C1.69 3.66 -0.62 4.32 -3 5 C-1.75 2.5 -1.75 2.5 0 0 Z " fill="#F3F4F4" transform="translate(62,4)"/>
<path d="M0 0 C2.31 0.33 4.62 0.66 7 1 C6.67 2.98 6.34 4.96 6 7 C5.34 7 4.68 7 4 7 C3.566875 5.824375 3.566875 5.824375 3.125 4.625 C2.15087746 1.90328368 2.15087746 1.90328368 0 0 Z " fill="#8F9090" transform="translate(47,83)"/>
<path d="M0 0 C4.75 0.75 4.75 0.75 7 3 C6.67 3.66 6.34 4.32 6 5 C3.69 4.34 1.38 3.68 -1 3 C-0.67 2.01 -0.34 1.02 0 0 Z " fill="#898A89" transform="translate(83,15)"/>
<path d="M0 0 C2.97 0.33 5.94 0.66 9 1 C9 1.33 9 1.66 9 2 C5.7 2.33 2.4 2.66 -1 3 C-0.67 2.01 -0.34 1.02 0 0 Z " fill="#7D7F7E" transform="translate(56,14)"/>
<path d="M0 0 C-2.3125 1.5625 -2.3125 1.5625 -5 3 C-5.99 2.67 -6.98 2.34 -8 2 C-8 1.34 -8 0.68 -8 0 C-4.94736336 -0.98120464 -3.05263664 -0.98120464 0 0 Z " fill="#6B6D6C" transform="translate(85,20)"/>
<path d="M0 0 C1.32 1.32 2.64 2.64 4 4 C2.6875 5.5 2.6875 5.5 1 7 C0.01 7 -0.98 7 -2 7 C-2 6.34 -2 5.68 -2 5 C-1.01 4.34 -0.02 3.68 1 3 C0.67 2.01 0.34 1.02 0 0 Z " fill="#575857" transform="translate(62,56)"/>
<path d="M0 0 C0 0.66 0 1.32 0 2 C-2.64738916 3.4606285 -3.89448334 4 -7 4 C-7 3.34 -7 2.68 -7 2 C-4 0 -4 0 0 0 Z " fill="#919392" transform="translate(47,19)"/>
<path d="M0 0 C0.66 1.32 1.32 2.64 2 4 C-1 6 -1 6 -4 6 C-2.84826645 3.53199953 -1.95216435 1.95216435 0 0 Z " fill="#7D7E7D" transform="translate(56,8)"/>
<path d="M0 0 C0.99 0 1.98 0 3 0 C3 0.99 3 1.98 3 3 C2.01 3 1.02 3 0 3 C0 2.01 0 1.02 0 0 Z " fill="#FF7E00" transform="translate(448,77)"/>
<path d="M0 0 C0.99 0 1.98 0 3 0 C3 0.99 3 1.98 3 3 C2.01 3 1.02 3 0 3 C0 2.01 0 1.02 0 0 Z " fill="#FFFFFF" transform="translate(503,53)"/>
<path d="M0 0 C0.99 0 1.98 0 3 0 C3 0.99 3 1.98 3 3 C2.01 3 1.02 3 0 3 C0 2.01 0 1.02 0 0 Z " fill="#FFFFFF" transform="translate(411,29)"/>
<path d="M0 0 C0.66 0 1.32 0 2 0 C1.67 0.99 1.34 1.98 1 3 C0.34 3 -0.32 3 -1 3 C-0.67 2.01 -0.34 1.02 0 0 Z " fill="#5C5E5D" transform="translate(74,89)"/>
<path d="M0 0 C0.66 0 1.32 0 2 0 C2 0.99 2 1.98 2 3 C1.34 3 0.68 3 0 3 C0 2.01 0 1.02 0 0 Z " fill="#FFFFFF" transform="translate(517,29)"/>
<path d="" fill="#FFFFFF" transform="translate(0,0)"/>
</svg>
